<svg width="20" height="26" viewBox="0 0 20 26" fill="none" xmlns="http://www.w3.org/2000/svg">
    <path d="M16.7026 13.771C16.6719 10.6603 19.2398 9.16818 19.354 9.09449C17.911 6.98219 15.6636 6.69359 14.8629 6.66043C12.9508 6.4664 11.1308 7.78659 10.1594 7.78659C9.19165 7.78659 7.69339 6.68868 6.1067 6.71815C4.02388 6.74886 2.10193 7.92904 1.02858 9.79573C-1.13775 13.5537 0.47349 19.123 2.58456 22.1711C3.61615 23.6632 4.84669 25.3396 6.46162 25.2782C8.01637 25.2168 8.60462 24.2724 10.4848 24.2724C12.365 24.2724 12.8943 25.2794 14.5399 25.2487C16.2138 25.2168 17.2737 23.7271 18.2979 22.2313C19.483 20.4997 19.9705 18.8234 20 18.7374C19.9632 18.7214 16.7358 17.4848 16.7038 13.7698L16.7026 13.771ZM13.6103 4.6427C14.4675 3.60251 15.0459 2.15951 14.8875 0.720201C13.6533 0.769324 12.1562 1.54302 11.2708 2.58075C10.4762 3.50181 9.7799 4.96937 9.96657 6.38043C11.3445 6.4885 12.7519 5.68043 13.6103 4.6427Z" fill="#140F12"/>
</svg>
