<svg width="18" height="18" viewBox="0 0 18 18" fill="none" xmlns="http://www.w3.org/2000/svg">
<path fill-rule="evenodd" clip-rule="evenodd" d="M16 8.07585V11.9596C16 14.368 16 15.5723 15.429 16.0985C15.1567 16.3494 14.813 16.5071 14.4468 16.549C13.6791 16.6368 12.7825 15.8438 10.9894 14.2579C10.1968 13.5568 9.80053 13.2063 9.34201 13.1139C9.11622 13.0685 8.88378 13.0685 8.65799 13.1139C8.19947 13.2063 7.80317 13.5568 7.01057 14.2579C5.21746 15.8438 4.3209 16.6368 3.55316 16.549C3.187 16.5071 2.84328 16.3494 2.57097 16.0985C2 15.5723 2 14.368 2 11.9596V8.07585C2 4.74026 2 3.07247 3.02513 2.03623C4.05025 1 5.70017 1 9 1C12.2998 1 13.9497 1 14.9749 2.03623C16 3.07247 16 4.74026 16 8.07585ZM6.08333 4.11111C6.08333 3.78895 6.3445 3.52778 6.66667 3.52778H11.3333C11.6555 3.52778 11.9167 3.78895 11.9167 4.11111C11.9167 4.43328 11.6555 4.69444 11.3333 4.69444H6.66667C6.3445 4.69444 6.08333 4.43328 6.08333 4.11111Z" fill="white"/>
</svg>
