<svg width="22" height="23" viewBox="0 0 22 23" fill="none" xmlns="http://www.w3.org/2000/svg">
<path fill-rule="evenodd" clip-rule="evenodd" d="M5.2548 2.3719C6.37068 1.26235 8.20803 1.45985 9.1424 2.70797L10.2983 4.252C11.0586 5.26756 10.9915 6.68694 10.089 7.58428L9.87015 7.80191C9.8606 7.82967 9.83741 7.91695 9.86314 8.08282C9.92109 8.45636 10.233 9.24873 11.5425 10.5508C12.8515 11.8524 13.6495 12.164 14.0283 12.2221C14.2 12.2484 14.2898 12.2239 14.3176 12.2142L14.6916 11.8423C15.4939 11.0446 16.7267 10.8955 17.72 11.4354L19.4713 12.3875C20.9709 13.2027 21.3498 15.2411 20.1212 16.4627L18.819 17.7575C18.4087 18.1654 17.857 18.5056 17.1836 18.5684C15.5254 18.723 11.6586 18.5257 7.59588 14.486C3.80279 10.7145 3.0749 7.42548 2.98281 5.80497L3.6692 5.76596L2.98281 5.80497C2.93624 4.98555 3.32345 4.29228 3.816 3.80253L5.2548 2.3719ZM8.04167 3.532C7.57726 2.91165 6.71168 2.86232 6.2243 3.34693L4.7855 4.77757C4.48307 5.07828 4.33756 5.40968 4.35559 5.72696C4.42876 7.0145 5.01662 9.98238 8.56538 13.511C12.2884 17.2129 15.727 17.3232 17.056 17.1993C17.3275 17.174 17.5976 17.033 17.8495 16.7825L19.1517 15.4877C19.681 14.9614 19.5642 14.003 18.8146 13.5955L17.0633 12.6435C16.5797 12.3806 16.0131 12.4673 15.6611 12.8173L15.2436 13.2324L14.7589 12.7449C15.2436 13.2324 15.243 13.2331 15.2423 13.2338L15.241 13.2351L15.2382 13.2378L15.2322 13.2435L15.2188 13.256C15.2091 13.2648 15.1981 13.2745 15.1857 13.2848C15.1608 13.3054 15.1302 13.3287 15.0936 13.3533C15.0202 13.4024 14.9233 13.4559 14.8015 13.5013C14.5532 13.5938 14.2258 13.6434 13.8199 13.5812C13.0253 13.4593 11.9727 12.9176 10.573 11.5258C9.17372 10.1345 8.62745 9.08679 8.5044 8.29362C8.44148 7.88804 8.49166 7.56051 8.58528 7.31204C8.63116 7.19027 8.68523 7.09345 8.73485 7.02021C8.75959 6.98369 8.78315 6.95316 8.80393 6.92835C8.81432 6.91595 8.82403 6.90497 8.83287 6.89537L8.84546 6.882L8.85122 6.87608L8.85397 6.87331L8.8553 6.87197C8.85596 6.87131 8.85661 6.87066 9.34136 7.35818L8.85661 6.87066L9.11953 6.60924C9.51241 6.21859 9.56744 5.57009 9.19758 5.07603L8.04167 3.532Z" fill="#433F41"/>
</svg>
