<svg width="60" height="61" viewBox="0 0 60 61" fill="none" xmlns="http://www.w3.org/2000/svg">
<circle cx="30" cy="30.9238" r="30" fill="#F9F2F6"/>
<circle cx="30" cy="30.9414" r="23" fill="#F3E7EE"/>
<path fill-rule="evenodd" clip-rule="evenodd" d="M28.2755 21.1964C28.359 21.1914 28.4474 21.1914 28.5609 21.1914H31.4395C31.553 21.1914 31.6413 21.1914 31.7249 21.1964C32.7853 21.2607 33.7139 21.93 34.1102 22.9157C34.1414 22.9933 34.1694 23.0772 34.2052 23.1849L34.2083 23.194C34.2916 23.4183 34.4829 23.6735 34.7506 23.8773C34.7804 23.9 34.8104 23.9214 34.8403 23.9416C36.9942 23.9441 38.1185 23.9839 38.8934 24.6144C39.0524 24.7437 39.1977 24.889 39.327 25.048C40 25.8751 40 27.1002 40 29.5503C40 30.1721 40 30.4829 39.8492 30.7254C39.8199 30.7726 39.7866 30.8173 39.7498 30.8591C39.5609 31.0732 39.2631 31.1625 38.6676 31.3411L34 32.7414V31.9414C34 30.8368 33.1046 29.9414 32 29.9414H28C26.8954 29.9414 26 30.8368 26 31.9414V32.7414L21.3324 31.3411C20.7369 31.1625 20.4392 31.0732 20.2502 30.8591C20.2134 30.8173 20.1801 30.7726 20.1508 30.7254C20 30.4829 20 30.1721 20 29.5503C20 27.1002 20 25.8751 20.673 25.048C20.8023 24.889 20.9476 24.7437 21.1066 24.6144C21.8815 23.9839 23.0058 23.9441 25.1597 23.9416C25.1897 23.9214 25.2196 23.9 25.2494 23.8773C25.5173 23.6734 25.7085 23.4182 25.7919 23.1939C25.8298 23.08 25.8582 22.9951 25.8902 22.9157C26.2864 21.93 27.215 21.2607 28.2755 21.1964ZM32.8187 23.7595C32.8429 23.8211 32.8695 23.8817 32.8984 23.9414H27.1017C27.1306 23.8818 27.1572 23.8213 27.1814 23.7598L27.1829 23.7563L27.1871 23.7464L27.1919 23.7343L27.1965 23.7223L27.2002 23.7124L27.2019 23.7074L27.2062 23.6951L27.21 23.6838L27.2121 23.6776L27.2148 23.6692L27.2171 23.6622L27.2189 23.6564C27.2577 23.5401 27.2704 23.5039 27.2819 23.4752C27.462 23.0271 27.8841 22.7229 28.3661 22.6937C28.3984 22.6917 28.4379 22.6914 28.5813 22.6914H31.419C31.5624 22.6914 31.602 22.6917 31.6342 22.6937C32.1162 22.7229 32.5383 23.0271 32.7185 23.4752C32.7298 23.5034 32.7419 23.5384 32.7813 23.6564L32.783 23.6621L32.7853 23.6692L32.788 23.6775L32.7901 23.6838L32.7939 23.6951L32.7982 23.7073L32.7999 23.7123L32.8036 23.7222L32.8081 23.7341L32.813 23.7461L32.8171 23.7559L32.8187 23.7595ZM32 31.4414H28C27.7239 31.4414 27.5 31.6653 27.5 31.9414V34.1029C27.5 34.3073 27.6245 34.4912 27.8143 34.5671L28.5144 34.8472C29.4681 35.2286 30.5319 35.2286 31.4856 34.8472L32.1857 34.5671C32.3755 34.4912 32.5 34.3073 32.5 34.1029V31.9414C32.5 31.6653 32.2761 31.4414 32 31.4414ZM26.0108 34.3106L21.0059 32.8091C21.036 35.9236 21.2179 38.7919 22.3179 39.7697C23.6359 40.9412 25.7573 40.9412 29.9999 40.9412C34.2425 40.9412 36.3639 40.9412 37.6819 39.7697C38.7819 38.7919 38.9638 35.9236 38.9939 32.8091L33.9892 34.3105C33.913 35.0432 33.4372 35.6821 32.7428 35.9598L32.0426 36.2399C30.7314 36.7644 29.2686 36.7644 27.9574 36.2399L27.2572 35.9598C26.5628 35.6821 26.087 35.0433 26.0108 34.3106Z" fill="#83074E"/>
</svg>
