<svg width="40" height="41" viewBox="0 0 40 41" fill="none" xmlns="http://www.w3.org/2000/svg">
<rect y="0.5" width="40" height="40" rx="20" fill="#0A8B0E"/>
<path fill-rule="evenodd" clip-rule="evenodd" d="M13.3378 12.7489C14.4537 11.6393 16.291 11.8368 17.2254 13.0849L18.3813 14.629C19.1416 15.6445 19.0745 17.0639 18.172 17.9612L17.9532 18.1789C17.9436 18.2066 17.9204 18.2939 17.9462 18.4598C18.0041 18.8333 18.316 19.6257 19.6255 20.9277C20.9345 22.2293 21.7325 22.5409 22.1113 22.599C22.283 22.6254 22.3728 22.6008 22.4006 22.5911L22.7746 22.2192C23.5769 21.4215 24.8097 21.2724 25.803 21.8124L27.5543 22.7644C29.0539 23.5796 29.4328 25.618 28.2042 26.8397L26.902 28.1345C26.4917 28.5424 25.94 28.8826 25.2666 28.9454C23.6084 29.0999 19.7417 28.9027 15.6789 24.863C11.8858 21.0914 11.1579 17.8024 11.0658 16.1819L11.7522 16.1429L11.0658 16.1819C11.0192 15.3625 11.4065 14.6692 11.899 14.1795L13.3378 12.7489ZM16.1247 13.9089C15.6603 13.2886 14.7947 13.2393 14.3073 13.7239L12.8685 15.1545C12.5661 15.4552 12.4206 15.7866 12.4386 16.1039C12.5118 17.3915 13.0996 20.3593 16.6484 23.8879C20.3714 27.5898 23.81 27.7002 25.139 27.5763C25.4105 27.551 25.6806 27.4099 25.9325 27.1594L27.2347 25.8646C27.764 25.3383 27.6473 24.38 26.8976 23.9724L25.1463 23.0204C24.6627 22.7575 24.0961 22.8443 23.7441 23.1943L23.3266 23.6094L22.8419 23.1219C23.3266 23.6094 23.326 23.6101 23.3253 23.6107L23.324 23.612L23.3212 23.6148L23.3152 23.6205L23.3018 23.633C23.2922 23.6418 23.2811 23.6514 23.2687 23.6617C23.2438 23.6823 23.2132 23.7057 23.1766 23.7302C23.1032 23.7794 23.0063 23.8329 22.8845 23.8782C22.6362 23.9707 22.3088 24.0204 21.9029 23.9581C21.1083 23.8363 20.0558 23.2946 18.656 21.9028C17.2567 20.5114 16.7105 19.4637 16.5874 18.6706C16.5245 18.265 16.5747 17.9375 16.6683 17.689C16.7142 17.5672 16.7682 17.4704 16.8179 17.3972C16.8426 17.3606 16.8662 17.3301 16.8869 17.3053C16.8973 17.2929 16.907 17.2819 16.9159 17.2723L16.9285 17.259L16.9342 17.253L16.937 17.2503L16.9383 17.2489C16.939 17.2483 16.9396 17.2476 17.4244 17.7351L16.9396 17.2476L17.2025 16.9862C17.5954 16.5955 17.6504 15.947 17.2806 15.453L16.1247 13.9089Z" fill="#F4FDF4"/>
</svg>
