<svg width="40" height="41" viewBox="0 0 40 41" fill="none" xmlns="http://www.w3.org/2000/svg">
<rect y="0.5" width="40" height="40" rx="20" fill="#F9F2F6"/>
<path fill-rule="evenodd" clip-rule="evenodd" d="M17.7393 14.108C16.9791 13.0329 15.4579 12.8515 14.5383 13.8197L13.3611 15.059C12.9592 15.4821 12.6537 16.0699 12.6905 16.7552C12.7649 18.1421 13.3538 20.9808 16.4537 24.2443C19.7757 27.7418 22.9446 27.9177 24.3125 27.7827C24.8728 27.7274 25.3262 27.4285 25.6587 27.0785L26.7241 25.9568C27.7029 24.9263 27.4178 23.202 26.1931 22.497L24.7603 21.6723C23.9364 21.1981 22.9146 21.334 22.2593 22.024L21.9528 22.3466C21.9311 22.3543 21.863 22.3726 21.7327 22.3515C21.4308 22.3025 20.7793 22.0359 19.7052 20.9051C18.6345 19.7778 18.3707 19.0835 18.3207 18.7419C18.2965 18.5771 18.3211 18.4902 18.3308 18.463L18.3324 18.4586L18.516 18.2653C19.2417 17.5013 19.2931 16.3057 18.685 15.4457L17.7393 14.108ZM15.354 14.5944C15.7461 14.1816 16.4364 14.214 16.8207 14.7575L17.7664 16.0951C18.083 16.5429 18.0345 17.1387 17.7003 17.4905L17.4852 17.717L17.884 18.0957C17.4852 17.717 17.4847 17.7175 17.4842 17.7181L17.4831 17.7192L17.4809 17.7215L17.4764 17.7265L17.4664 17.7378C17.4593 17.7458 17.4516 17.755 17.4434 17.7655C17.4269 17.7863 17.4083 17.8119 17.3887 17.8425C17.3495 17.9038 17.3069 17.9845 17.2709 18.0858C17.1976 18.2917 17.1577 18.5644 17.2076 18.905C17.3056 19.5741 17.744 20.4739 18.8895 21.6799C20.0317 22.8823 20.8943 23.3551 21.5524 23.4619C21.8901 23.5168 22.1635 23.473 22.3705 23.3913C22.4717 23.3514 22.5517 23.3046 22.6118 23.262C22.6417 23.2407 22.6667 23.2205 22.6868 23.2029C22.6969 23.194 22.7058 23.1858 22.7136 23.1783L22.7243 23.1677L22.7291 23.1629L22.7313 23.1606L22.7324 23.1594C22.7329 23.1589 22.7334 23.1584 22.338 22.7828L22.7334 23.1584L23.075 22.7987C23.3641 22.4944 23.8145 22.426 24.199 22.6473L25.6319 23.4721C26.2476 23.8264 26.368 24.6981 25.9084 25.182L24.843 26.3037C24.6337 26.524 24.4148 26.6421 24.202 26.6631C23.1257 26.7693 20.3175 26.6787 17.2694 23.4696C14.3623 20.4089 13.8747 17.8272 13.8139 16.6949C13.7978 16.3954 13.9282 16.0955 14.1768 15.8338L15.354 14.5944Z" fill="#140F12"/>
<path d="M23.3978 14.1028C23.1781 13.8831 22.8219 13.8831 22.6023 14.1028C22.3826 14.3225 22.3826 14.6786 22.6023 14.8983L23.7045 16.0006L22.6023 17.1028C22.3826 17.3225 22.3826 17.6786 22.6023 17.8983C22.822 18.118 23.1781 18.118 23.3978 17.8983L24.5 16.7961L25.6023 17.8983C25.8219 18.118 26.1781 18.118 26.3978 17.8983C26.6174 17.6786 26.6174 17.3225 26.3978 17.1028L25.2955 16.0006L26.3978 14.8983C26.6174 14.6787 26.6174 14.3225 26.3978 14.1028C26.1781 13.8832 25.8219 13.8832 25.6023 14.1028L24.5 15.2051L23.3978 14.1028Z" fill="#140F12"/>
</svg>
