<svg width="14" height="15" viewBox="0 0 14 15" fill="none" xmlns="http://www.w3.org/2000/svg">
<path fill-rule="evenodd" clip-rule="evenodd" d="M7.77944 1.22925H9.13684C9.83387 1.22924 10.3882 1.22924 10.8327 1.27151C11.2885 1.31485 11.6739 1.40569 12.0172 1.61607C12.3704 1.83252 12.6674 2.12949 12.8838 2.48269C13.0942 2.826 13.185 3.21139 13.2284 3.6672C13.2706 4.11174 13.2706 4.66603 13.2706 5.36306V5.8389C13.2706 6.33507 13.2706 6.7297 13.2488 7.04971C13.2265 7.37704 13.1798 7.65812 13.0708 7.92132C12.8044 8.56452 12.2934 9.07554 11.6502 9.34196C11.429 9.43357 11.1932 9.48167 10.9262 9.50784C10.9231 9.58913 10.9191 9.66638 10.9141 9.73992C10.8904 10.0876 10.841 10.3839 10.7264 10.6605C10.4452 11.3394 9.90579 11.8788 9.22686 12.16C8.87868 12.3042 8.49465 12.3465 8.01171 12.3619C7.75186 12.3703 7.58577 12.376 7.45959 12.3914C7.3403 12.4059 7.29554 12.4254 7.27134 12.4397C7.24445 12.4556 7.20732 12.4848 7.14259 12.5739C7.07267 12.6701 6.99351 12.803 6.8681 13.0149L6.71677 13.2706C6.32188 13.9377 5.34444 13.9377 4.94955 13.2706L4.79822 13.0149C4.67282 12.803 4.59365 12.6701 4.52373 12.5739C4.459 12.4848 4.42188 12.4556 4.39498 12.4397C4.37078 12.4254 4.32602 12.4059 4.20673 12.3914C4.08056 12.376 3.91446 12.3703 3.65461 12.3619C3.17168 12.3465 2.78765 12.3042 2.43948 12.16C1.76055 11.8788 1.22114 11.3394 0.939921 10.6605C0.825352 10.3839 0.775942 10.0876 0.752221 9.73992C0.729 9.39958 0.729002 8.97948 0.729004 8.4494V7.94419C0.728999 7.19952 0.728996 6.60944 0.773948 6.13666C0.819973 5.6526 0.916189 5.24651 1.13731 4.88566C1.36578 4.51283 1.67925 4.19937 2.05208 3.97089C2.41292 3.74977 2.81901 3.65355 3.30307 3.60753C3.42612 3.59583 3.55712 3.58717 3.69672 3.58077C3.7434 3.16086 3.83647 2.80252 4.03246 2.48269C4.2489 2.12949 4.54587 1.83252 4.89908 1.61607C5.24239 1.40569 5.62777 1.31485 6.08358 1.27151C6.52812 1.22924 7.08241 1.22924 7.77944 1.22925ZM4.58094 3.56328C4.74823 3.56258 4.92459 3.56258 5.11059 3.56258H6.55575C7.30041 3.56258 7.89049 3.56257 8.36327 3.60753C8.84733 3.65355 9.25342 3.74977 9.61426 3.97089C9.98709 4.19937 10.3006 4.51283 10.529 4.88566C10.7502 5.24651 10.8464 5.6526 10.8924 6.13666C10.9373 6.60944 10.9373 7.19952 10.9373 7.94418V8.44941C10.9373 8.50968 10.9373 8.56853 10.9373 8.626C11.098 8.60516 11.2151 8.57507 11.3153 8.53357C11.7441 8.35595 12.0848 8.01527 12.2624 7.58647C12.3199 7.44766 12.3565 7.27293 12.3758 6.99014C12.3954 6.70343 12.3956 6.33863 12.3956 5.82302V5.38551C12.3956 4.66098 12.3952 4.1483 12.3573 3.75002C12.3201 3.35826 12.2497 3.1226 12.1378 2.93988C11.9935 2.70441 11.7955 2.50643 11.56 2.36213C11.3773 2.25016 11.1416 2.17983 10.7499 2.14258C10.3516 2.10471 9.83892 2.10425 9.11439 2.10425H7.80189C7.07735 2.10425 6.56468 2.10471 6.16641 2.14258C5.77465 2.17983 5.53899 2.25016 5.35627 2.36213C5.1208 2.50643 4.92282 2.70441 4.77852 2.93988C4.68486 3.09272 4.62117 3.28076 4.58094 3.56328ZM3.38589 4.4786C2.96588 4.51853 2.70952 4.59424 2.50927 4.71695C2.25417 4.87328 2.0397 5.08775 1.88337 5.34285C1.76066 5.5431 1.68495 5.79947 1.64502 6.21948C1.60447 6.64601 1.604 7.19449 1.604 7.96676V8.43343C1.604 8.98302 1.60424 9.3733 1.62519 9.68036C1.64587 9.98348 1.68527 10.1734 1.74832 10.3256C1.94073 10.7901 2.3098 11.1592 2.77433 11.3516C2.96927 11.4324 3.22043 11.4726 3.68259 11.4874L3.70073 11.488C3.93721 11.4955 4.1429 11.5021 4.31268 11.5228C4.49367 11.5449 4.67148 11.5866 4.84046 11.6866C5.00675 11.7849 5.12685 11.9153 5.23169 12.0597C5.32867 12.1932 5.42859 12.362 5.54187 12.5534L5.70254 12.8249C5.72903 12.8696 5.77527 12.8959 5.83316 12.8959C5.89105 12.8959 5.9373 12.8696 5.96378 12.8249L6.12446 12.5534C6.23773 12.362 6.33765 12.1932 6.43464 12.0597C6.53947 11.9153 6.65957 11.7849 6.82586 11.6866C6.99484 11.5866 7.17266 11.5449 7.35364 11.5228C7.52342 11.5021 7.72911 11.4955 7.9656 11.488L7.98374 11.4874C8.4459 11.4726 8.69707 11.4324 8.89201 11.3516C9.35654 11.1592 9.72561 10.7901 9.91803 10.3256C9.98107 10.1734 10.0205 9.98348 10.0412 9.68036C10.0621 9.3733 10.0623 8.98302 10.0623 8.43343V7.96676C10.0623 7.19449 10.0619 6.64601 10.0213 6.21948C9.98139 5.79947 9.90568 5.5431 9.78297 5.34285C9.62664 5.08775 9.41217 4.87328 9.15707 4.71695C8.95682 4.59424 8.70046 4.51853 8.28045 4.4786C7.85392 4.43804 7.30544 4.43758 6.53317 4.43758H5.13317C4.3609 4.43758 3.81242 4.43804 3.38589 4.4786Z" fill="#433F41"/>
<path d="M4.37484 8.08342C4.37484 8.40558 4.11367 8.66675 3.7915 8.66675C3.46934 8.66675 3.20817 8.40558 3.20817 8.08342C3.20817 7.76125 3.46934 7.50008 3.7915 7.50008C4.11367 7.50008 4.37484 7.76125 4.37484 8.08342Z" fill="#433F41"/>
<path d="M6.4165 8.08342C6.4165 8.40558 6.15534 8.66675 5.83317 8.66675C5.511 8.66675 5.24984 8.40558 5.24984 8.08342C5.24984 7.76125 5.511 7.50008 5.83317 7.50008C6.15534 7.50008 6.4165 7.76125 6.4165 8.08342Z" fill="#433F41"/>
<path d="M8.45817 8.08342C8.45817 8.40558 8.197 8.66675 7.87484 8.66675C7.55267 8.66675 7.2915 8.40558 7.2915 8.08342C7.2915 7.76125 7.55267 7.50008 7.87484 7.50008C8.197 7.50008 8.45817 7.76125 8.45817 8.08342Z" fill="#433F41"/>
</svg>
