<svg width="14" height="15" viewBox="0 0 14 15" fill="none" xmlns="http://www.w3.org/2000/svg">
<path fill-rule="evenodd" clip-rule="evenodd" d="M6.15327 13.0579L6.29914 12.8115C6.53291 12.4165 6.6498 12.2191 6.83599 12.1089C7.02219 11.9988 7.26506 11.991 7.75081 11.9755C8.20628 11.9609 8.51241 11.9212 8.77415 11.8127C9.32521 11.5845 9.76303 11.1467 9.99129 10.5956C10.1625 10.1823 10.1625 9.65834 10.1625 8.61043V8.16063C10.1625 6.68824 10.1625 5.95204 9.83108 5.41122C9.64563 5.10861 9.3912 4.85418 9.08859 4.66873C8.54778 4.33732 7.81158 4.33732 6.33919 4.33732H4.9898C3.51741 4.33732 2.78122 4.33732 2.2404 4.66873C1.93779 4.85418 1.68336 5.10861 1.49792 5.41122C1.1665 5.95204 1.1665 6.68824 1.1665 8.16063V8.61043C1.1665 9.65834 1.1665 10.1823 1.3377 10.5956C1.56596 11.1467 2.00378 11.5845 2.55485 11.8127C2.81659 11.9212 3.1227 11.9609 3.57816 11.9755C4.06391 11.991 4.30678 11.9988 4.49298 12.1089C4.67918 12.2191 4.79606 12.4165 5.02984 12.8115L5.1757 13.0579C5.39303 13.4251 5.93594 13.4251 6.15327 13.0579ZM7.63237 8.83531C7.94289 8.83531 8.19462 8.58359 8.19462 8.27306C8.19462 7.96254 7.94289 7.71082 7.63237 7.71082C7.32185 7.71082 7.07012 7.96254 7.07012 8.27306C7.07012 8.58359 7.32185 8.83531 7.63237 8.83531ZM6.22675 8.27306C6.22675 8.58359 5.97502 8.83531 5.6645 8.83531C5.35397 8.83531 5.10225 8.58359 5.10225 8.27306C5.10225 7.96254 5.35397 7.71082 5.6645 7.71082C5.97502 7.71082 6.22675 7.96254 6.22675 8.27306ZM3.69662 8.83531C4.00715 8.83531 4.25887 8.58359 4.25887 8.27306C4.25887 7.96254 4.00715 7.71082 3.69662 7.71082C3.3861 7.71082 3.13438 7.96254 3.13438 8.27306C3.13438 8.58359 3.3861 8.83531 3.69662 8.83531Z" fill="#83074E"/>
<path d="M8.84879 1.66675C9.52063 1.66674 10.0549 1.66674 10.4833 1.70748C10.9227 1.74925 11.2941 1.83681 11.625 2.03959C11.9655 2.24821 12.2517 2.53445 12.4603 2.87489C12.6631 3.20579 12.7507 3.57725 12.7924 4.01658C12.8332 4.44504 12.8332 4.97933 12.8332 5.65114V6.10999C12.8332 6.58813 12.8332 6.96844 12.8121 7.27683C12.7906 7.59233 12.7457 7.86325 12.6406 8.11693C12.3838 8.73689 11.8912 9.22944 11.2713 9.48623C11.2558 9.49265 11.2402 9.49886 11.2245 9.50484C11.1497 9.53345 11.0856 9.55796 11.0293 9.57622C11.0375 9.30274 11.0375 8.99125 11.0375 8.63973V8.11923C11.0375 7.41828 11.0375 6.83112 10.9921 6.35376C10.9446 5.85402 10.8413 5.38504 10.5771 4.95404C10.3195 4.53369 9.96613 4.18027 9.54578 3.92268C9.11478 3.65856 8.6458 3.55519 8.14605 3.50768C7.6687 3.46229 7.08153 3.4623 6.38059 3.46232H4.94841C4.47235 3.46231 4.04878 3.4623 3.67645 3.47651C3.69379 3.4164 3.71756 3.3475 3.74546 3.26662C3.7929 3.12906 3.85286 2.99897 3.9289 2.87489C4.13752 2.53445 4.42376 2.24821 4.7642 2.03959C5.0951 1.83681 5.46655 1.74925 5.90589 1.70748C6.33436 1.66674 6.86862 1.66674 7.54045 1.66675H8.84879Z" fill="#83074E"/>
</svg>
