<svg xmlns="http://www.w3.org/2000/svg" width="19" height="18" viewBox="0 0 19 18" fill="none">
    <path d="M1.3335 8.79167C1.3335 5.64917 1.3335 4.0775 2.31016 3.10167C3.28683 2.12583 4.85766 2.125 8.00016 2.125H11.3335C14.476 2.125 16.0477 2.125 17.0235 3.10167C17.9993 4.07833 18.0002 5.64917 18.0002 8.79167V10.4583C18.0002 13.6008 18.0002 15.1725 17.0235 16.1483C16.0468 17.1242 14.476 17.125 11.3335 17.125H8.00016C4.85766 17.125 3.286 17.125 2.31016 16.1483C1.33433 15.1717 1.3335 13.6008 1.3335 10.4583V8.79167Z" stroke="#898788" stroke-width="1.5"/>
    <path opacity="0.5" d="M5.50016 2.125V0.875M13.8335 2.125V0.875M1.3335 6.29167H18.0002" stroke="#898788" stroke-width="1.5" stroke-linecap="round"/>
    <path d="M7.16699 10.875L8.41699 9.625V12.9583" stroke="#898788" stroke-width="1.5" stroke-linecap="round" stroke-linejoin="round"/>
    <path d="M10.5 12.125V10.4583C10.5 10.2373 10.5878 10.0254 10.7441 9.86908C10.9004 9.7128 11.1123 9.625 11.3333 9.625C11.5543 9.625 11.7663 9.7128 11.9226 9.86908C12.0789 10.0254 12.1667 10.2373 12.1667 10.4583V12.125C12.1667 12.346 12.0789 12.558 11.9226 12.7143C11.7663 12.8705 11.5543 12.9583 11.3333 12.9583C11.1123 12.9583 10.9004 12.8705 10.7441 12.7143C10.5878 12.558 10.5 12.346 10.5 12.125Z" stroke="#898788" stroke-width="1.5" stroke-linecap="round"/>
</svg>