<svg width="18" height="19" viewBox="0 0 18 19" fill="none" xmlns="http://www.w3.org/2000/svg">
<path fill-rule="evenodd" clip-rule="evenodd" d="M8.20769 1.4375H9.79231C11.1706 1.43749 12.2624 1.43748 13.1168 1.55235C13.9961 1.67057 14.7078 1.91966 15.2691 2.48093C15.8303 3.04221 16.0794 3.75392 16.1976 4.63323C16.3125 5.48764 16.3125 6.57937 16.3125 7.95769V11.0423C16.3125 12.4206 16.3125 13.5124 16.1976 14.3668C16.0794 15.2461 15.8303 15.9578 15.2691 16.5191C14.7078 17.0803 13.9961 17.3294 13.1168 17.4476C12.2624 17.5625 11.1706 17.5625 9.79231 17.5625H8.20769C6.82937 17.5625 5.73764 17.5625 4.88323 17.4476C4.00392 17.3294 3.29221 17.0803 2.73093 16.5191C2.16966 15.9578 1.92057 15.2461 1.80235 14.3668C1.68748 13.5124 1.68749 12.4206 1.6875 11.0423V7.95769C1.68749 6.57937 1.68748 5.48764 1.80235 4.63323C1.92057 3.75392 2.16966 3.04221 2.73093 2.48093C3.29221 1.91966 4.00392 1.67057 4.88323 1.55235C5.73764 1.43748 6.82937 1.43749 8.20769 1.4375ZM5.03314 2.66732C4.27857 2.76877 3.84384 2.95902 3.52643 3.27643C3.20902 3.59384 3.01877 4.02857 2.91732 4.78314C2.8137 5.55388 2.8125 6.56988 2.8125 8V11C2.8125 12.4301 2.8137 13.4461 2.91732 14.2169C3.01877 14.9714 3.20902 15.4062 3.52643 15.7236C3.84384 16.041 4.27857 16.2312 5.03314 16.3327C5.80388 16.4363 6.81988 16.4375 8.25 16.4375H9.75C11.1801 16.4375 12.1961 16.4363 12.9669 16.3327C13.7214 16.2312 14.1562 16.041 14.4736 15.7236C14.791 15.4062 14.9812 14.9714 15.0827 14.2169C15.1863 13.4461 15.1875 12.4301 15.1875 11V8C15.1875 6.56989 15.1863 5.55389 15.0827 4.78314C14.9812 4.02857 14.791 3.59384 14.4736 3.27643C14.1562 2.95902 13.7214 2.76877 12.9669 2.66732C12.1961 2.5637 11.1801 2.5625 9.75 2.5625H8.25C6.81989 2.5625 5.80389 2.5637 5.03314 2.66732ZM5.4375 6.5C5.4375 6.18934 5.68934 5.9375 6 5.9375H12C12.3107 5.9375 12.5625 6.18934 12.5625 6.5C12.5625 6.81066 12.3107 7.0625 12 7.0625H6C5.68934 7.0625 5.4375 6.81066 5.4375 6.5ZM5.4375 9.5C5.4375 9.18934 5.68934 8.9375 6 8.9375H12C12.3107 8.9375 12.5625 9.18934 12.5625 9.5C12.5625 9.81066 12.3107 10.0625 12 10.0625H6C5.68934 10.0625 5.4375 9.81066 5.4375 9.5ZM5.4375 12.5C5.4375 12.1893 5.68934 11.9375 6 11.9375H9.75C10.0607 11.9375 10.3125 12.1893 10.3125 12.5C10.3125 12.8107 10.0607 13.0625 9.75 13.0625H6C5.68934 13.0625 5.4375 12.8107 5.4375 12.5Z" fill="#433F41"/>
</svg>
