<svg width="16" height="10" viewBox="0 0 16 10" fill="none" xmlns="http://www.w3.org/2000/svg">
<path fill-rule="evenodd" clip-rule="evenodd" d="M10.911 0.779186C11.171 1.00619 11.1978 1.40102 10.9708 1.66104L4.42313 9.16105C4.30444 9.297 4.13278 9.37501 3.95231 9.37501C3.77184 9.37501 3.60017 9.297 3.48149 9.16105L0.862438 6.16104C0.635429 5.90102 0.662196 5.50619 0.922225 5.27919C1.18225 5.05218 1.57707 5.07894 1.80408 5.33897L3.95231 7.79967L10.0291 0.838973C10.2561 0.578944 10.6509 0.552177 10.911 0.779186Z" fill="#83074E"/>
<path fill-rule="evenodd" clip-rule="evenodd" d="M15.0978 0.849552C15.3477 1.08761 15.3574 1.48322 15.1193 1.73317L7.97627 9.23317C7.85003 9.36572 7.67203 9.43627 7.48926 9.42618C7.30649 9.4161 7.13733 9.3264 7.02644 9.18077L6.6695 8.71202C6.46039 8.43739 6.51349 8.04525 6.78812 7.83613C7.02404 7.65648 7.3467 7.67036 7.56554 7.85196L14.2142 0.871091C14.4522 0.621138 14.8478 0.611495 15.0978 0.849552Z" fill="#83074E"/>
</svg>
