<svg width="14" height="14" viewBox="0 0 14 14" fill="none" xmlns="http://www.w3.org/2000/svg">
<g clip-path="url(#clip0_2916_15179)">
<path fill-rule="evenodd" clip-rule="evenodd" d="M6.96652 0.729492L7.87499 0.729492C8.11661 0.729492 8.31249 0.925368 8.31249 1.16699C8.31249 1.40862 8.11661 1.60449 7.87499 1.60449H6.99999C5.61269 1.60449 4.61623 1.60542 3.85791 1.70738C3.11217 1.80764 2.66259 1.99832 2.33029 2.33062C1.99799 2.66292 1.8073 3.11251 1.70704 3.85825C1.60509 4.61657 1.60416 5.61303 1.60416 7.00033C1.60416 8.38762 1.60509 9.38408 1.70704 10.1424C1.8073 10.8881 1.99799 11.3377 2.33029 11.67C2.66259 12.0023 3.11217 12.193 3.85791 12.2933C4.61623 12.3952 5.61269 12.3962 6.99999 12.3962C8.38729 12.3962 9.38375 12.3952 10.1421 12.2933C10.8878 12.193 11.3374 12.0023 11.6697 11.67C12.002 11.3377 12.1927 10.8881 12.2929 10.1424C12.3949 9.38408 12.3958 8.38762 12.3958 7.00033V6.12533C12.3958 5.8837 12.5917 5.68783 12.8333 5.68783C13.0749 5.68783 13.2708 5.8837 13.2708 6.12533V7.03379C13.2708 8.38036 13.2708 9.43563 13.1601 10.259C13.0468 11.1018 12.8104 11.7668 12.2884 12.2887C11.7664 12.8107 11.1014 13.0472 10.2587 13.1605C9.43529 13.2712 8.38002 13.2712 7.03346 13.2712H6.96652C5.61996 13.2712 4.56469 13.2712 3.74132 13.1605C2.89856 13.0472 2.23354 12.8107 1.71157 12.2887C1.1896 11.7668 0.953148 11.1018 0.839842 10.259C0.729143 9.43563 0.729149 8.38036 0.729157 7.0338V6.96685C0.729149 5.62029 0.729143 4.56502 0.839842 3.74165C0.953149 2.89889 1.1896 2.23388 1.71157 1.71191C2.23354 1.18993 2.89856 0.953484 3.74132 0.840178C4.56469 0.729479 5.61996 0.729485 6.96652 0.729492ZM9.7828 1.32794C10.5807 0.530009 11.8744 0.530009 12.6724 1.32794C13.4703 2.12588 13.4703 3.41958 12.6724 4.21752L8.79431 8.09558C8.57773 8.31219 8.44206 8.44788 8.29066 8.56597C8.11234 8.70505 7.91939 8.8243 7.71524 8.92159C7.54191 9.0042 7.35988 9.06486 7.06928 9.16171L5.37497 9.72647C5.06216 9.83074 4.71729 9.74933 4.48414 9.51618C4.25098 9.28302 4.16957 8.93815 4.27384 8.62534L4.8386 6.93104C4.93545 6.64044 4.99611 6.4584 5.07872 6.28507C5.17602 6.08092 5.29526 5.88798 5.43435 5.70965C5.55244 5.55825 5.68813 5.42258 5.90475 5.20599L9.7828 1.32794ZM12.0537 1.94666C11.5974 1.49044 10.8577 1.49044 10.4015 1.94666L10.1818 2.16636C10.1951 2.22228 10.2136 2.2889 10.2394 2.36321C10.323 2.60416 10.4812 2.92149 10.78 3.22032C11.0788 3.51915 11.3962 3.67735 11.6371 3.76094C11.7114 3.78672 11.778 3.80525 11.834 3.81849L12.0537 3.5988C12.5099 3.14257 12.5099 2.40289 12.0537 1.94666ZM11.1447 4.50779C10.8437 4.37836 10.4931 4.17084 10.1613 3.83904C9.82947 3.50724 9.62196 3.15664 9.49252 2.85566L6.54354 5.80464C6.30057 6.04761 6.20528 6.14397 6.1243 6.2478C6.02429 6.37601 5.93856 6.51473 5.8686 6.66151C5.81195 6.78038 5.76838 6.9087 5.65973 7.23468L5.40779 7.99049L6.00982 8.59253L6.76564 8.34059C7.09161 8.23193 7.21993 8.18836 7.3388 8.13171C7.48558 8.06176 7.62431 7.97602 7.75252 7.87602C7.85635 7.79503 7.9527 7.69975 8.19567 7.45678L11.1447 4.50779Z" fill="#F3E7EE"/>
</g>
<defs>
<clipPath id="clip0_2916_15179">
<rect width="14" height="14" fill="white"/>
</clipPath>
</defs>
</svg>
