<svg width="40" height="41" viewBox="0 0 40 41" fill="none" xmlns="http://www.w3.org/2000/svg">
<rect y="0.5" width="40" height="40" rx="20" fill="#F13918"/>
<path fill-rule="evenodd" clip-rule="evenodd" d="M20 16.25C15.4353 16.25 12.8727 18.1756 11.6329 19.5131C11.0108 20.1842 10.75 21.1999 10.75 22.3504C10.75 24.0042 12.1403 25.0337 13.4026 24.6757L14.7423 24.2957C15.592 24.0547 16.25 23.1868 16.25 22.1185C16.25 22.0201 16.2707 21.3926 16.8193 20.7875C17.3806 20.1683 18.3644 19.7139 20 19.7139C21.6356 19.7139 22.6193 20.1683 23.1806 20.7874C23.7293 21.3926 23.75 22.02 23.75 22.1185V22.1185C23.75 23.1868 24.408 24.0547 25.2577 24.2958L26.5974 24.6757C27.8597 25.0337 29.25 24.0042 29.25 22.3504C29.25 21.1999 28.9892 20.1842 28.3671 19.5131C27.1273 18.1756 24.5647 16.25 20 16.25ZM10.5328 18.4933C12.0077 16.9022 14.9511 14.75 20 14.75C25.0489 14.75 27.9923 16.9022 29.4672 18.4933C30.4576 19.5619 30.75 21.0255 30.75 22.3504C30.75 24.8163 28.5772 26.7964 26.1882 26.1188L24.8484 25.7388C23.2871 25.296 22.2591 23.7918 22.2501 22.1405C22.2463 22.1147 22.22 21.961 22.0693 21.7949C21.8806 21.5867 21.3644 21.2139 20 21.2139C18.6356 21.2139 18.1194 21.5867 17.9307 21.7949C17.78 21.9611 17.7537 22.1147 17.7499 22.1405C17.7409 23.7918 16.7129 25.296 15.1515 25.7388L13.8118 26.1188C11.4228 26.7964 9.25 24.8163 9.25 22.3504C9.25 21.0255 9.54238 19.5619 10.5328 18.4933Z" fill="#FEF5F3"/>
</svg>
