<svg xmlns="http://www.w3.org/2000/svg" width="16" height="16" viewBox="0 0 16 16" fill="none">
    <path fill-rule="evenodd" clip-rule="evenodd" d="M1.07102 4.0539C1.40943 3.90887 1.80135 4.06563 1.94639 4.40405L1.33363 4.66667C1.94639 4.40405 1.94648 4.40427 1.94639 4.40405L1.94605 4.40325C1.94586 4.40282 1.946 4.40314 1.94605 4.40325L1.94866 4.40916C1.95133 4.41517 1.95592 4.42538 1.96245 4.43952C1.97551 4.4678 1.9963 4.51172 2.02496 4.56904C2.08234 4.68379 2.17095 4.85164 2.29191 5.05484C2.53457 5.46252 2.90325 6.00549 3.40549 6.54637C3.52387 6.67385 3.64915 6.80073 3.78148 6.92537C3.78701 6.93039 3.79248 6.93553 3.79788 6.94077C4.78767 7.8676 6.1685 8.66667 8.00029 8.66667C8.80627 8.66667 9.51922 8.51279 10.1476 8.26546C10.9649 7.94375 11.65 7.45941 12.2107 6.93314C12.8438 6.33892 13.3088 5.70002 13.6158 5.20733C13.7687 4.96194 13.8808 4.75545 13.9536 4.61272C13.9899 4.54144 14.0164 4.48628 14.0331 4.4504C14.0414 4.43247 14.0474 4.41938 14.0509 4.41152L14.0542 4.40405C14.1993 4.06582 14.5912 3.9089 14.9296 4.0539C15.268 4.19894 15.4248 4.59086 15.2797 4.92928L14.667 4.66667C15.2797 4.92928 15.2798 4.92913 15.2797 4.92928L15.2783 4.93263L15.2759 4.93811L15.2683 4.95534C15.2619 4.96956 15.253 4.98918 15.2415 5.01381C15.2186 5.06305 15.1853 5.13236 15.1413 5.21849C15.0536 5.39059 14.923 5.63072 14.7474 5.91245C14.479 6.34322 14.1017 6.87746 13.6067 7.41619L14.1384 7.94782C14.3987 8.20817 14.3987 8.63028 14.1384 8.89063C13.878 9.15098 13.4559 9.15098 13.1956 8.89063L12.6354 8.33051C12.2593 8.63434 11.8383 8.92091 11.3708 9.16813L11.8924 9.96974C12.0932 10.2784 12.0058 10.6913 11.6972 10.8921C11.3886 11.0929 10.9756 11.0055 10.7748 10.6969L10.1179 9.68724C9.66522 9.826 9.18163 9.92435 8.66696 9.97044V11C8.66696 11.3682 8.36848 11.6667 8.00029 11.6667C7.6321 11.6667 7.33363 11.3682 7.33363 11V9.97054C6.8172 9.92441 6.33375 9.82587 5.88255 9.68751L5.22575 10.6969C5.02495 11.0055 4.61198 11.0929 4.30337 10.8921C3.99476 10.6913 3.90737 10.2784 4.10817 9.96974L4.62977 9.16811C4.16303 8.92109 3.74196 8.63452 3.3653 8.33036L2.80503 8.89063C2.54468 9.15098 2.12257 9.15098 1.86222 8.89063C1.60187 8.63028 1.60187 8.20817 1.86222 7.94782L2.39385 7.41619C1.83052 6.80302 1.4188 6.19482 1.14618 5.73682C1.00672 5.50253 0.902625 5.30579 0.832395 5.16533C0.797255 5.09505 0.770519 5.03871 0.752006 4.99863C0.742748 4.97859 0.735539 4.96259 0.730358 4.95094L0.724101 4.93675L0.722107 4.93216L0.721392 4.93051L0.721105 4.92984C0.720981 4.92955 0.720865 4.92928 1.33363 4.66667L0.721105 4.92984C0.576068 4.59142 0.732595 4.19894 1.07102 4.0539Z" fill="#898788"/>
</svg>