<svg width="32" height="32" viewBox="0 0 32 32" fill="none" xmlns="http://www.w3.org/2000/svg">
<circle cx="15" cy="15" r="15.4688" transform="matrix(-1 0 0 1 31 1)" fill="white" stroke="#F3E7EE" stroke-width="0.9375"/>
<path d="M17.8605 17.4882C16.6275 17.4882 15.6279 18.4878 15.6279 19.7208C15.6279 20.9538 16.6275 21.9534 17.8605 21.9534C19.0935 21.9534 20.093 20.9538 20.093 19.7208C20.093 18.4878 19.0935 17.4882 17.8605 17.4882Z" fill="#433F41"/>
<path d="M14.1395 10.0464C15.3725 10.0464 16.3721 11.0459 16.3721 12.2789C16.3721 13.512 15.3725 14.5115 14.1395 14.5115C12.9065 14.5115 11.907 13.512 11.907 12.2789C11.907 11.0459 12.9065 10.0464 14.1395 10.0464Z" fill="#433F41"/>
<path d="M18.2326 11.6899C17.9243 11.6899 17.6744 11.9398 17.6744 12.2481C17.6744 12.5563 17.9243 12.8062 18.2326 12.8062L23.4419 12.8062C23.7501 12.8062 24 12.5563 24 12.2481C24 11.9398 23.7501 11.6899 23.4419 11.6899H18.2326Z" fill="#433F41"/>
<path d="M13.7674 19.1318C14.0757 19.1318 14.3256 19.3817 14.3256 19.6899C14.3256 19.9982 14.0757 20.2481 13.7674 20.2481H8.55814C8.24989 20.2481 8 19.9982 8 19.6899C8 19.3817 8.24989 19.1318 8.55814 19.1318H13.7674Z" fill="#433F41"/>
<path d="M24 19.6899C24 19.3817 23.7501 19.1318 23.4419 19.1318H21.9535C21.6452 19.1318 21.3953 19.3817 21.3953 19.6899C21.3953 19.9982 21.6452 20.2481 21.9535 20.2481H23.4419C23.7501 20.2481 24 19.9982 24 19.6899Z" fill="#433F41"/>
<path d="M8.55814 11.6899C8.24989 11.6899 8 11.9398 8 12.2481C8 12.5563 8.24989 12.8062 8.55814 12.8062L10.0465 12.8062C10.3548 12.8062 10.6047 12.5563 10.6047 12.2481C10.6047 11.9398 10.3548 11.6899 10.0465 11.6899H8.55814Z" fill="#433F41"/>
</svg>
