<svg width="96" height="24" viewBox="0 0 96 24" fill="none" xmlns="http://www.w3.org/2000/svg">
<path fill-rule="evenodd" clip-rule="evenodd" d="M10.5487 21.5277L10.7988 21.1053C11.1996 20.4282 11.3999 20.0897 11.7191 19.9009C12.0383 19.712 12.4547 19.6987 13.2874 19.6721C14.0682 19.6471 14.593 19.579 15.0417 19.3931C15.9864 19.0018 16.7369 18.2513 17.1282 17.3066C17.4217 16.5981 17.4217 15.6999 17.4217 13.9035V13.1324C17.4217 10.6083 17.4217 9.34622 16.8536 8.4191C16.5357 7.90033 16.0995 7.46416 15.5807 7.14626C14.6536 6.57813 13.3916 6.57812 10.8675 6.57812H8.55422C6.03013 6.57812 4.76808 6.57813 3.84097 7.14626C3.3222 7.46416 2.88604 7.90033 2.56813 8.4191C2 9.34622 2 10.6083 2 13.1324V13.9035C2 15.6999 2 16.5981 2.29348 17.3066C2.68478 18.2513 3.43533 19.0018 4.38002 19.3931C4.82871 19.579 5.35348 19.6471 6.13427 19.6721C6.96698 19.6987 7.38334 19.712 7.70253 19.9009C8.02172 20.0897 8.2221 20.4282 8.62285 21.1053L8.87291 21.5277C9.24547 22.1572 10.1762 22.1572 10.5487 21.5277ZM13.0843 14.289C13.6167 14.289 14.0482 13.8574 14.0482 13.3251C14.0482 12.7928 13.6167 12.3613 13.0843 12.3613C12.552 12.3613 12.1205 12.7928 12.1205 13.3251C12.1205 13.8574 12.552 14.289 13.0843 14.289ZM10.6747 13.3251C10.6747 13.8574 10.2432 14.289 9.71084 14.289C9.17852 14.289 8.74699 13.8574 8.74699 13.3251C8.74699 12.7928 9.17852 12.3613 9.71084 12.3613C10.2432 12.3613 10.6747 12.7928 10.6747 13.3251ZM6.33735 14.289C6.86967 14.289 7.30121 13.8574 7.30121 13.3251C7.30121 12.7928 6.86967 12.3613 6.33735 12.3613C5.80503 12.3613 5.37349 12.7928 5.37349 13.3251C5.37349 13.8574 5.80503 14.289 6.33735 14.289Z" fill="#83074E"/>
<path d="M15.1696 2C16.3214 1.99999 17.2372 1.99999 17.9717 2.06982C18.7249 2.14143 19.3617 2.29154 19.9289 2.63915C20.5125 2.9968 21.0032 3.48748 21.3608 4.0711C21.7085 4.63836 21.8586 5.27514 21.9302 6.02829C22 6.76279 22 7.67871 22 8.83039V9.61699C22 10.4367 22 11.0886 21.9639 11.6173C21.927 12.1581 21.85 12.6226 21.6698 13.0575C21.2296 14.1202 20.3853 14.9646 19.3225 15.4048C19.2959 15.4158 19.2692 15.4265 19.2423 15.4367C19.114 15.4858 19.0042 15.5278 18.9077 15.5591C18.9217 15.0903 18.9217 14.5563 18.9217 13.9537V13.0614C18.9217 11.8598 18.9217 10.8532 18.8439 10.0349C18.7625 9.17817 18.5853 8.37421 18.1325 7.63536C17.6909 6.91475 17.0851 6.30889 16.3645 5.8673C15.6256 5.41453 14.8217 5.23733 13.9649 5.15588C13.1466 5.07807 12.14 5.07809 10.9384 5.07812H8.48326C7.66717 5.0781 6.94105 5.07809 6.30276 5.10245C6.3325 4.9994 6.37324 4.88128 6.42106 4.74264C6.5024 4.50682 6.60519 4.28381 6.73554 4.0711C7.09318 3.48748 7.58386 2.9968 8.16748 2.63915C8.73473 2.29154 9.37152 2.14143 10.1247 2.06982C10.8592 1.99999 11.775 1.99999 12.9268 2H15.1696Z" fill="#83074E"/>
<path d="M42 6.832V8.64H37.344V11.504H40.912V13.28H37.344V18H35.104V6.832H42ZM47.5244 18.144C46.671 18.144 45.903 17.9573 45.2204 17.584C44.5377 17.2 43.999 16.6613 43.6044 15.968C43.2204 15.2747 43.0284 14.4747 43.0284 13.568C43.0284 12.6613 43.2257 11.8613 43.6204 11.168C44.0257 10.4747 44.575 9.94133 45.2684 9.568C45.9617 9.184 46.735 8.992 47.5884 8.992C48.4417 8.992 49.215 9.184 49.9084 9.568C50.6017 9.94133 51.1457 10.4747 51.5404 11.168C51.9457 11.8613 52.1484 12.6613 52.1484 13.568C52.1484 14.4747 51.9404 15.2747 51.5244 15.968C51.119 16.6613 50.5644 17.2 49.8604 17.584C49.167 17.9573 48.3884 18.144 47.5244 18.144ZM47.5244 16.192C47.9297 16.192 48.3084 16.096 48.6604 15.904C49.023 15.7013 49.311 15.4027 49.5244 15.008C49.7377 14.6133 49.8444 14.1333 49.8444 13.568C49.8444 12.7253 49.6204 12.08 49.1724 11.632C48.735 11.1733 48.1964 10.944 47.5564 10.944C46.9164 10.944 46.3777 11.1733 45.9404 11.632C45.5137 12.08 45.3004 12.7253 45.3004 13.568C45.3004 14.4107 45.5084 15.0613 45.9244 15.52C46.351 15.968 46.8844 16.192 47.5244 16.192ZM56.0315 10.512C56.3195 10.0427 56.6928 9.67467 57.1515 9.408C57.6208 9.14133 58.1542 9.008 58.7515 9.008V11.36H58.1595C57.4555 11.36 56.9222 11.5253 56.5595 11.856C56.2075 12.1867 56.0315 12.7627 56.0315 13.584V18H53.7915V9.136H56.0315V10.512ZM68.6283 9.136V18H66.3723V16.88C66.0843 17.264 65.7056 17.568 65.2363 17.792C64.7776 18.0053 64.2763 18.112 63.7323 18.112C63.0389 18.112 62.4256 17.968 61.8923 17.68C61.3589 17.3813 60.9376 16.9493 60.6283 16.384C60.3296 15.808 60.1803 15.1253 60.1803 14.336V9.136H62.4203V14.016C62.4203 14.72 62.5963 15.264 62.9483 15.648C63.3003 16.0213 63.7803 16.208 64.3883 16.208C65.0069 16.208 65.4923 16.0213 65.8443 15.648C66.1963 15.264 66.3723 14.72 66.3723 14.016V9.136H68.6283ZM81.8464 9.008C82.9344 9.008 83.809 9.344 84.4704 10.016C85.1424 10.6773 85.4784 11.6053 85.4784 12.8V18H83.2384V13.104C83.2384 12.4107 83.0624 11.8827 82.7104 11.52C82.3584 11.1467 81.8784 10.96 81.2704 10.96C80.6624 10.96 80.177 11.1467 79.8144 11.52C79.4624 11.8827 79.2864 12.4107 79.2864 13.104V18H77.0464V13.104C77.0464 12.4107 76.8704 11.8827 76.5184 11.52C76.1664 11.1467 75.6864 10.96 75.0784 10.96C74.4597 10.96 73.969 11.1467 73.6064 11.52C73.2544 11.8827 73.0784 12.4107 73.0784 13.104V18H70.8384V9.136H73.0784V10.208C73.3664 9.83467 73.7344 9.54133 74.1824 9.328C74.641 9.11467 75.1424 9.008 75.6864 9.008C76.3797 9.008 76.9984 9.15733 77.5424 9.456C78.0864 9.744 78.5077 10.16 78.8064 10.704C79.0944 10.192 79.5104 9.78133 80.0544 9.472C80.609 9.16267 81.2064 9.008 81.8464 9.008ZM90.996 18.144C90.2707 18.144 89.62 18.016 89.044 17.76C88.468 17.4933 88.0093 17.136 87.668 16.688C87.3373 16.24 87.156 15.744 87.124 15.2H89.38C89.4227 15.5413 89.588 15.824 89.876 16.048C90.1747 16.272 90.5427 16.384 90.98 16.384C91.4067 16.384 91.7373 16.2987 91.972 16.128C92.2173 15.9573 92.34 15.7387 92.34 15.472C92.34 15.184 92.1907 14.9707 91.892 14.832C91.604 14.6827 91.14 14.5227 90.5 14.352C89.8387 14.192 89.2947 14.0267 88.868 13.856C88.452 13.6853 88.0893 13.424 87.78 13.072C87.4813 12.72 87.332 12.2453 87.332 11.648C87.332 11.1573 87.4707 10.7093 87.748 10.304C88.036 9.89867 88.4413 9.57867 88.964 9.344C89.4973 9.10933 90.1213 8.992 90.836 8.992C91.892 8.992 92.7347 9.25867 93.364 9.792C93.9933 10.3147 94.34 11.024 94.404 11.92H92.26C92.228 11.568 92.0787 11.2907 91.812 11.088C91.556 10.8747 91.2093 10.768 90.772 10.768C90.3667 10.768 90.052 10.8427 89.828 10.992C89.6147 11.1413 89.508 11.3493 89.508 11.616C89.508 11.9147 89.6573 12.144 89.956 12.304C90.2547 12.4533 90.7187 12.608 91.348 12.768C91.988 12.928 92.516 13.0933 92.932 13.264C93.348 13.4347 93.7053 13.7013 94.004 14.064C94.3133 14.416 94.4733 14.8853 94.484 15.472C94.484 15.984 94.34 16.4427 94.052 16.848C93.7747 17.2533 93.3693 17.5733 92.836 17.808C92.3133 18.032 91.7 18.144 90.996 18.144Z" fill="#83074E"/>
</svg>
