<svg width="20" height="20" viewBox="0 0 20 20" fill="none" xmlns="http://www.w3.org/2000/svg">
<path d="M0.833252 10.1137C0.833252 4.98834 4.93729 0.833374 9.99987 0.833374C15.0625 0.833374 19.1665 4.98834 19.1665 10.1137L19.1665 14.9202C19.1668 15.669 19.167 16.1826 19.0353 16.6334C18.7779 17.515 18.1624 18.2443 17.3424 18.6392C16.9231 18.8412 16.422 18.9211 15.6914 19.0376L15.5722 19.0566C15.3124 19.0982 15.0903 19.1336 14.9061 19.152C14.7145 19.171 14.519 19.1769 14.319 19.137C13.6612 19.0058 13.1187 18.5365 12.8882 17.8992C12.8181 17.7054 12.7933 17.509 12.782 17.3144C12.7712 17.1274 12.7712 16.8998 12.7712 16.6335L12.7711 12.8088C12.7706 12.4188 12.7702 12.0832 12.8595 11.7958C13.0636 11.1382 13.5967 10.6394 14.2603 10.4851C14.5503 10.4177 14.8808 10.4445 15.2648 10.4757L15.3502 10.4826L15.4509 10.4906C16.1693 10.5478 16.6608 10.5869 17.0781 10.7431C17.3713 10.8529 17.6432 11.0041 17.8874 11.1895V10.1137C17.8874 5.70351 14.356 2.12831 9.99987 2.12831C5.64369 2.12831 2.11232 5.70351 2.11232 10.1137V11.1895C2.35653 11.0041 2.62848 10.8529 2.92168 10.7431C3.33892 10.5869 3.83043 10.5478 4.54883 10.4906L4.6495 10.4826L4.73496 10.4757C5.11898 10.4445 5.44941 10.4177 5.73947 10.4851C6.40303 10.6394 6.93611 11.1382 7.14027 11.7958C7.22952 12.0832 7.22911 12.4188 7.22864 12.8088L7.22857 16.6335C7.22857 16.8998 7.22858 17.1274 7.21771 17.3144C7.20641 17.509 7.18163 17.7054 7.11156 17.8992C6.881 18.5365 6.33852 19.0058 5.6807 19.137C5.48076 19.1769 5.28527 19.171 5.09363 19.152C4.9094 19.1336 4.68737 19.0982 4.42752 19.0566L4.30839 19.0376C3.57774 18.9211 3.07668 18.8412 2.65733 18.6392C1.83731 18.2443 1.22181 17.515 0.964407 16.6334C0.855867 16.2617 0.836953 15.8473 0.833806 15.2935L0.833252 15.1153V10.1137Z" fill="#F9F2F6"/>
<path fill-rule="evenodd" clip-rule="evenodd" d="M9.99987 4.27087C10.3796 4.27087 10.6874 4.57868 10.6874 4.95837L10.6874 9.54171C10.6874 9.9214 10.3796 10.2292 9.99987 10.2292C9.62018 10.2292 9.31237 9.9214 9.31237 9.54171L9.31237 4.95837C9.31237 4.57868 9.62018 4.27087 9.99987 4.27087Z" fill="#F9F2F6"/>
<path fill-rule="evenodd" clip-rule="evenodd" d="M12.7499 5.64587C13.1296 5.64587 13.4374 5.95368 13.4374 6.33337V8.16671C13.4374 8.5464 13.1296 8.85421 12.7499 8.85421C12.3702 8.85421 12.0624 8.5464 12.0624 8.16671V6.33337C12.0624 5.95368 12.3702 5.64587 12.7499 5.64587Z" fill="#F9F2F6"/>
<path fill-rule="evenodd" clip-rule="evenodd" d="M7.24987 5.64587C7.62957 5.64587 7.93737 5.95368 7.93737 6.33337L7.93737 8.16671C7.93737 8.5464 7.62957 8.85421 7.24987 8.85421C6.87018 8.85421 6.56237 8.5464 6.56237 8.16671L6.56237 6.33337C6.56237 5.95368 6.87017 5.64587 7.24987 5.64587Z" fill="#F9F2F6"/>
</svg>
