<svg width="28" height="23" viewBox="0 0 28 23" fill="none" xmlns="http://www.w3.org/2000/svg">
    <path d="M9.10005 15.7059C8.99549 15.7059 8.89092 15.7212 8.79117 15.7536C8.22418 15.9377 7.62786 16.0559 7.00005 16.0559C6.37224 16.0559 5.77593 15.9377 5.2085 15.7536C5.10875 15.7212 5.00462 15.7059 4.90006 15.7059C2.18494 15.7059 -0.0143668 17.9144 7.0677e-05 20.633C0.00619566 21.7819 0.950756 22.7059 2.10007 22.7059H11.9C13.0494 22.7059 13.9939 21.7819 14 20.633C14.0145 17.9144 11.8152 15.7059 9.10005 15.7059ZM7.00005 14.3059C9.31967 14.3059 11.2 12.4255 11.2 10.1059C11.2 7.78626 9.31967 5.90589 7.00005 5.90589C4.68043 5.90589 2.80006 7.78626 2.80006 10.1059C2.80006 12.4255 4.68043 14.3059 7.00005 14.3059ZM25.9 0.305908H9.10005C7.94199 0.305908 7.00005 1.27934 7.00005 2.47547V4.5059C8.02468 4.5059 8.97317 4.80252 9.80005 5.28465V3.1059H25.2V15.7059H22.4V12.9059H16.8V15.7059H13.4645C14.3002 16.4361 14.9135 17.4003 15.201 18.5059H25.9C27.0581 18.5059 28 17.5324 28 16.3363V2.47547C28 1.27934 27.0581 0.305908 25.9 0.305908Z" fill="#83074E"/>
</svg>
