<svg width="141" height="24" viewBox="0 0 141 24" fill="none" xmlns="http://www.w3.org/2000/svg">
<path d="M3.77791 3.65484C3.59687 4.01573 3.50783 4.46093 3.32975 5.35133L2.73183 8.34093C2.35324 10.2339 3.8011 12 5.73155 12C7.30318 12 8.61911 10.8091 8.77549 9.24527L8.8445 8.55515C8.68141 10.4038 10.1385 12 11.9998 12C13.8737 12 15.338 10.382 15.1515 8.51737L15.2245 9.24527C15.3809 10.8091 16.6968 12 18.2685 12C20.1989 12 21.6468 10.2339 21.2682 8.34093L20.6703 5.35133C20.4922 4.46095 20.4031 4.01573 20.2221 3.65484C19.8406 2.89439 19.1542 2.33168 18.3337 2.10675C17.9443 2 17.4903 2 16.5823 2H14.4998H7.41771C6.50969 2 6.05567 2 5.66628 2.10675C4.84579 2.33168 4.15938 2.89439 3.77791 3.65484Z" fill="#83074E"/>
<path d="M18.2685 13.4997C19.0856 13.4997 19.8448 13.2874 20.5 12.9187V13.9997C20.5 17.771 20.5 19.6566 19.3284 20.8282C18.3853 21.7712 16.9796 21.9552 14.5 21.991V18.4998C14.5 17.5651 14.5 17.0978 14.299 16.7498C14.1674 16.5217 13.978 16.3324 13.75 16.2007C13.4019 15.9998 12.9346 15.9998 12 15.9998C11.0654 15.9998 10.5981 15.9998 10.25 16.2007C10.022 16.3324 9.83261 16.5217 9.70096 16.7498C9.5 17.0978 9.5 17.5651 9.5 18.4998V21.991C7.02043 21.9552 5.61466 21.7712 4.67157 20.8282C3.5 19.6566 3.5 17.771 3.5 13.9997V12.9186C4.15524 13.2874 4.91439 13.4997 5.73157 13.4997C6.92864 13.4997 8.02617 13.0361 8.84435 12.2717C9.67168 13.0318 10.7765 13.4997 11.9998 13.4997C13.2232 13.4997 14.3281 13.0317 15.1555 12.2715C15.9737 13.036 17.0713 13.4997 18.2685 13.4997Z" fill="#83074E"/>
<path d="M47.28 6.832V18H45.04V10.736L42.048 18H40.352L37.344 10.736V18H35.104V6.832H37.648L41.2 15.136L44.752 6.832H47.28ZM48.9186 13.536C48.9186 12.64 49.0946 11.8453 49.4466 11.152C49.8093 10.4587 50.2946 9.92533 50.9026 9.552C51.5213 9.17867 52.2093 8.992 52.9666 8.992C53.628 8.992 54.204 9.12533 54.6946 9.392C55.196 9.65867 55.596 9.99467 55.8946 10.4V9.136H58.1506V18H55.8946V16.704C55.6066 17.12 55.2066 17.4667 54.6946 17.744C54.1933 18.0107 53.612 18.144 52.9506 18.144C52.204 18.144 51.5213 17.952 50.9026 17.568C50.2946 17.184 49.8093 16.6453 49.4466 15.952C49.0946 15.248 48.9186 14.4427 48.9186 13.536ZM55.8946 13.568C55.8946 13.024 55.788 12.56 55.5746 12.176C55.3613 11.7813 55.0733 11.4827 54.7106 11.28C54.348 11.0667 53.9586 10.96 53.5426 10.96C53.1266 10.96 52.7426 11.0613 52.3906 11.264C52.0386 11.4667 51.7506 11.7653 51.5266 12.16C51.3133 12.544 51.2066 13.0027 51.2066 13.536C51.2066 14.0693 51.3133 14.5387 51.5266 14.944C51.7506 15.3387 52.0386 15.6427 52.3906 15.856C52.7533 16.0693 53.1373 16.176 53.5426 16.176C53.9586 16.176 54.348 16.0747 54.7106 15.872C55.0733 15.6587 55.3613 15.36 55.5746 14.976C55.788 14.5813 55.8946 14.112 55.8946 13.568ZM62.5784 10.512C62.8664 10.0427 63.2397 9.67467 63.6984 9.408C64.1677 9.14133 64.701 9.008 65.2984 9.008V11.36H64.7064C64.0024 11.36 63.469 11.5253 63.1064 11.856C62.7544 12.1867 62.5784 12.7627 62.5784 13.584V18H60.3384V9.136H62.5784V10.512ZM72.0551 18L69.0471 14.224V18H66.8071V6.16H69.0471V12.896L72.0231 9.136H74.9351L71.0311 13.584L74.9671 18H72.0551ZM84.3909 13.376C84.3909 13.696 84.3695 13.984 84.3269 14.24H77.8469C77.9002 14.88 78.1242 15.3813 78.5189 15.744C78.9135 16.1067 79.3989 16.288 79.9749 16.288C80.8069 16.288 81.3989 15.9307 81.7509 15.216H84.1669C83.9109 16.0693 83.4202 16.7733 82.6949 17.328C81.9695 17.872 81.0789 18.144 80.0229 18.144C79.1695 18.144 78.4015 17.9573 77.7189 17.584C77.0469 17.2 76.5189 16.6613 76.1349 15.968C75.7615 15.2747 75.5749 14.4747 75.5749 13.568C75.5749 12.6507 75.7615 11.8453 76.1349 11.152C76.5082 10.4587 77.0309 9.92533 77.7029 9.552C78.3749 9.17867 79.1482 8.992 80.0229 8.992C80.8655 8.992 81.6175 9.17333 82.2789 9.536C82.9509 9.89867 83.4682 10.416 83.8309 11.088C84.2042 11.7493 84.3909 12.512 84.3909 13.376ZM82.0709 12.736C82.0602 12.16 81.8522 11.7013 81.4469 11.36C81.0415 11.008 80.5455 10.832 79.9589 10.832C79.4042 10.832 78.9349 11.0027 78.5509 11.344C78.1775 11.6747 77.9482 12.1387 77.8629 12.736H82.0709ZM88.6339 10.976V15.264C88.6339 15.5627 88.7032 15.7813 88.8419 15.92C88.9912 16.048 89.2365 16.112 89.5779 16.112H90.6179V18H89.2099C87.3219 18 86.3779 17.0827 86.3779 15.248V10.976H85.3219V9.136H86.3779V6.944H88.6339V9.136H90.6179V10.976H88.6339ZM98.2815 10.416C98.5695 10.0107 98.9642 9.67467 99.4655 9.408C99.9775 9.13067 100.559 8.992 101.21 8.992C101.967 8.992 102.65 9.17867 103.258 9.552C103.876 9.92533 104.362 10.4587 104.714 11.152C105.076 11.8347 105.258 12.6293 105.258 13.536C105.258 14.4427 105.076 15.248 104.714 15.952C104.362 16.6453 103.876 17.184 103.258 17.568C102.65 17.952 101.967 18.144 101.21 18.144C100.559 18.144 99.9828 18.0107 99.4815 17.744C98.9908 17.4773 98.5908 17.1413 98.2815 16.736V22.224H96.0415V9.136H98.2815V10.416ZM102.97 13.536C102.97 13.0027 102.858 12.544 102.634 12.16C102.42 11.7653 102.132 11.4667 101.77 11.264C101.418 11.0613 101.034 10.96 100.618 10.96C100.212 10.96 99.8282 11.0667 99.4655 11.28C99.1135 11.4827 98.8255 11.7813 98.6015 12.176C98.3882 12.5707 98.2815 13.0347 98.2815 13.568C98.2815 14.1013 98.3882 14.5653 98.6015 14.96C98.8255 15.3547 99.1135 15.6587 99.4655 15.872C99.8282 16.0747 100.212 16.176 100.618 16.176C101.034 16.176 101.418 16.0693 101.77 15.856C102.132 15.6427 102.42 15.3387 102.634 14.944C102.858 14.5493 102.97 14.08 102.97 13.536ZM109.125 6.16V18H106.885V6.16H109.125ZM110.762 13.536C110.762 12.64 110.938 11.8453 111.29 11.152C111.653 10.4587 112.138 9.92533 112.746 9.552C113.365 9.17867 114.053 8.992 114.81 8.992C115.472 8.992 116.048 9.12533 116.538 9.392C117.04 9.65867 117.44 9.99467 117.738 10.4V9.136H119.994V18H117.738V16.704C117.45 17.12 117.05 17.4667 116.538 17.744C116.037 18.0107 115.456 18.144 114.794 18.144C114.048 18.144 113.365 17.952 112.746 17.568C112.138 17.184 111.653 16.6453 111.29 15.952C110.938 15.248 110.762 14.4427 110.762 13.536ZM117.738 13.568C117.738 13.024 117.632 12.56 117.418 12.176C117.205 11.7813 116.917 11.4827 116.554 11.28C116.192 11.0667 115.802 10.96 115.386 10.96C114.97 10.96 114.586 11.0613 114.234 11.264C113.882 11.4667 113.594 11.7653 113.37 12.16C113.157 12.544 113.05 13.0027 113.05 13.536C113.05 14.0693 113.157 14.5387 113.37 14.944C113.594 15.3387 113.882 15.6427 114.234 15.856C114.597 16.0693 114.981 16.176 115.386 16.176C115.802 16.176 116.192 16.0747 116.554 15.872C116.917 15.6587 117.205 15.36 117.418 14.976C117.632 14.5813 117.738 14.112 117.738 13.568ZM121.606 13.568C121.606 12.6507 121.793 11.8507 122.166 11.168C122.539 10.4747 123.057 9.94133 123.718 9.568C124.379 9.184 125.137 8.992 125.99 8.992C127.089 8.992 127.995 9.26933 128.71 9.824C129.435 10.368 129.921 11.136 130.166 12.128H127.75C127.622 11.744 127.403 11.4453 127.094 11.232C126.795 11.008 126.422 10.896 125.974 10.896C125.334 10.896 124.827 11.1307 124.454 11.6C124.081 12.0587 123.894 12.7147 123.894 13.568C123.894 14.4107 124.081 15.0667 124.454 15.536C124.827 15.9947 125.334 16.224 125.974 16.224C126.881 16.224 127.473 15.8187 127.75 15.008H130.166C129.921 15.968 129.435 16.7307 128.71 17.296C127.985 17.8613 127.078 18.144 125.99 18.144C125.137 18.144 124.379 17.9573 123.718 17.584C123.057 17.2 122.539 16.6667 122.166 15.984C121.793 15.2907 121.606 14.4853 121.606 13.568ZM140.047 13.376C140.047 13.696 140.026 13.984 139.983 14.24H133.503C133.556 14.88 133.78 15.3813 134.175 15.744C134.57 16.1067 135.055 16.288 135.631 16.288C136.463 16.288 137.055 15.9307 137.407 15.216H139.823C139.567 16.0693 139.076 16.7733 138.351 17.328C137.626 17.872 136.735 18.144 135.679 18.144C134.826 18.144 134.058 17.9573 133.375 17.584C132.703 17.2 132.175 16.6613 131.791 15.968C131.418 15.2747 131.231 14.4747 131.231 13.568C131.231 12.6507 131.418 11.8453 131.791 11.152C132.164 10.4587 132.687 9.92533 133.359 9.552C134.031 9.17867 134.804 8.992 135.679 8.992C136.522 8.992 137.274 9.17333 137.935 9.536C138.607 9.89867 139.124 10.416 139.487 11.088C139.86 11.7493 140.047 12.512 140.047 13.376ZM137.727 12.736C137.716 12.16 137.508 11.7013 137.103 11.36C136.698 11.008 136.202 10.832 135.615 10.832C135.06 10.832 134.591 11.0027 134.207 11.344C133.834 11.6747 133.604 12.1387 133.519 12.736H137.727Z" fill="#83074E"/>
</svg>
