<svg width="25" height="24" viewBox="0 0 25 24" fill="none" xmlns="http://www.w3.org/2000/svg">
    <path fill-rule="evenodd" clip-rule="evenodd" d="M7.80681 1.25002C7.00585 1.24976 6.45624 1.24957 5.96776 1.38348C4.94215 1.66464 4.08414 2.36804 3.6073 3.3186C3.38019 3.77133 3.27258 4.3103 3.11576 5.09577L2.49616 8.19389C2.26456 9.35192 2.58191 10.4718 3.24977 11.3115L3.24977 14.0565C3.24975 15.8942 3.24974 17.3499 3.4029 18.4891C3.56053 19.6615 3.89265 20.6104 4.64101 21.3588C5.38937 22.1072 6.33832 22.4393 7.51074 22.5969C8.64996 22.7501 10.1056 22.7501 11.9434 22.75H13.0562C14.8939 22.7501 16.3496 22.7501 17.4888 22.5969C18.6612 22.4393 19.6102 22.1072 20.3585 21.3588C21.1069 20.6104 21.439 19.6615 21.5966 18.4891C21.7498 17.3499 21.7498 15.8942 21.7498 14.0565V11.3116C22.4176 10.4718 22.735 9.35193 22.5034 8.19389L21.8838 5.09576C21.727 4.3103 21.6194 3.77133 21.3923 3.3186C20.9154 2.36804 20.0574 1.66464 19.0318 1.38348C18.5433 1.24957 17.9937 1.24976 17.1927 1.25002H7.80681ZM18.7682 12.75C19.2971 12.75 19.7969 12.6436 20.2498 12.4524V14C20.2498 15.9069 20.2482 17.2615 20.11 18.2892C19.9747 19.2953 19.7211 19.8749 19.2979 20.2981C18.8747 20.7214 18.295 20.975 17.2889 21.1103C16.8434 21.1702 16.3365 21.2044 15.7498 21.224V18.4678C15.7498 18.028 15.7498 17.6487 15.7216 17.3374C15.6917 17.0082 15.6257 16.6823 15.4483 16.375C15.2508 16.033 14.9668 15.749 14.6248 15.5515C14.3176 15.3741 13.9916 15.3081 13.6624 15.2782C13.3511 15.25 12.9718 15.25 12.532 15.25H12.4675C12.0278 15.25 11.6484 15.25 11.3371 15.2782C11.0079 15.3081 10.682 15.3741 10.3748 15.5515C10.0327 15.749 9.74869 16.033 9.55121 16.375C9.37384 16.6823 9.30778 17.0082 9.27795 17.3374C9.24973 17.6487 9.24975 18.028 9.24977 18.4678L9.24977 21.224C8.66304 21.2044 8.1561 21.1702 7.71062 21.1103C6.70453 20.975 6.12488 20.7214 5.70167 20.2981C5.27846 19.8749 5.02479 19.2953 4.88953 18.2892C4.75136 17.2615 4.74977 15.9069 4.74977 14V12.4524C5.20264 12.6436 5.70244 12.75 6.23132 12.75C7.50523 12.75 8.64422 12.1217 9.33783 11.1459C10.0473 12.114 11.1929 12.75 12.4996 12.75C13.8063 12.75 14.952 12.1139 15.6615 11.1456C16.3551 12.1215 17.4942 12.75 18.7682 12.75ZM10.7498 21.2481C11.1382 21.25 11.5539 21.25 11.9998 21.25H12.9998C13.4457 21.25 13.8614 21.25 14.2498 21.2481V18.5C14.2498 18.0189 14.249 17.7083 14.2277 17.4728C14.2073 17.2477 14.1729 17.1659 14.1493 17.125C14.0835 17.011 13.9888 16.9164 13.8748 16.8505C13.8339 16.8269 13.7522 16.7925 13.527 16.7721C13.2916 16.7508 12.9809 16.75 12.4998 16.75C12.0187 16.75 11.708 16.7508 11.4725 16.7721C11.2474 16.7925 11.1656 16.8269 11.1248 16.8505C11.0108 16.9164 10.9161 17.011 10.8502 17.125C10.8267 17.1659 10.7922 17.2476 10.7718 17.4728C10.7505 17.7083 10.7498 18.0189 10.7498 18.5V21.2481ZM9.17082 2.75005H7.91748C6.96302 2.75005 6.63246 2.75661 6.36433 2.83011C5.74897 2.9988 5.23416 3.42084 4.94806 3.99118C4.8234 4.23968 4.75214 4.56254 4.56496 5.49846L3.96703 8.48807C3.68126 9.91693 4.77415 11.25 6.23132 11.25C7.41763 11.25 8.41094 10.3511 8.52898 9.17069L8.59757 8.48481L8.60155 8.44279L9.17082 2.75005ZM10.091 8.62505L10.6785 2.75005H14.3208L14.905 8.59204C15.0473 10.0152 13.9298 11.25 12.4996 11.25C11.0804 11.25 9.96911 10.0342 10.091 8.62505ZM18.6352 2.83011C18.3671 2.75661 18.0365 2.75005 17.0821 2.75005H15.8285L16.4706 9.17069C16.5886 10.3511 17.5819 11.25 18.7682 11.25C20.2254 11.25 21.3183 9.91693 21.0325 8.48807L20.4346 5.49846C20.2474 4.56254 20.1762 4.23968 20.0515 3.99118C19.7654 3.42084 19.2506 2.9988 18.6352 2.83011Z" fill="#433F41"/>
</svg>
