<svg width="20" height="22" viewBox="0 0 20 22" fill="none" xmlns="http://www.w3.org/2000/svg">
<path d="M19.2878 7.17103C18.7888 5.95 18.0489 4.84196 17.1124 3.91301C15.7105 2.51022 13.9241 1.55478 11.979 1.16756C10.034 0.780332 8.01778 0.97873 6.18552 1.73765C4.96946 2.24601 3.86315 2.98468 2.92749 3.91301C1.99568 4.84251 1.25725 5.94741 0.754828 7.16389C0.252406 8.38037 -0.00404558 9.68433 0.000280795 11.0005C-0.00962593 12.2974 0.242702 13.5829 0.742108 14.7798L0.240874 18.4388C0.161947 18.7479 0.161947 19.072 0.240874 19.3811C0.32708 19.6879 0.48516 19.9697 0.702009 20.2031C0.922686 20.4304 1.19408 20.6022 1.49396 20.7044C1.79069 20.8026 2.10747 20.8267 2.41623 20.7746L6.08527 20.2332C7.31356 20.7618 8.63767 21.0314 9.97486 21.0252C12.6334 21.0246 15.1828 19.9681 17.0623 18.0879C17.9998 17.1637 18.7399 16.0587 19.2377 14.8399C20.2541 12.3847 20.2541 9.6263 19.2377 7.17103H19.2878ZM13.674 11.6922H10.7568V14.5893C10.7568 14.8552 10.6512 15.1102 10.4632 15.2982C10.2752 15.4862 10.0202 15.5918 9.75431 15.5918C9.48844 15.5918 9.23346 15.4862 9.04546 15.2982C8.85746 15.1102 8.75184 14.8552 8.75184 14.5893V11.6922H5.8547C5.58883 11.6922 5.33385 11.5866 5.14585 11.3986C4.95785 11.2106 4.85223 10.9556 4.85223 10.6897C4.85223 10.4238 4.95785 10.1688 5.14585 9.98085C5.33385 9.79285 5.58883 9.68723 5.8547 9.68723H8.75184V6.78007C8.75184 6.5142 8.85746 6.25922 9.04546 6.07122C9.23346 5.88322 9.48844 5.7776 9.75431 5.7776C10.0202 5.7776 10.2752 5.88322 10.4632 6.07122C10.6512 6.25922 10.7568 6.5142 10.7568 6.78007V9.68723H13.674C13.9398 9.68723 14.1948 9.79285 14.3828 9.98085C14.5708 10.1688 14.6764 10.4238 14.6764 10.6897C14.6764 10.9556 14.5708 11.2106 14.3828 11.3986C14.1948 11.5866 13.9398 11.6922 13.674 11.6922Z" fill="#F9F2F6"/>
</svg>
