<svg width="32" height="32" viewBox="0 0 32 32" fill="none" xmlns="http://www.w3.org/2000/svg">
<rect width="32" height="32" rx="16" fill="#83074E"/>
<path fill-rule="evenodd" clip-rule="evenodd" d="M10.4615 12.7181C10.4615 9.65934 12.9412 7.17969 16 7.17969C19.0588 7.17969 21.5385 9.65934 21.5385 12.7181V16.8207C21.5385 19.8795 19.0588 22.3592 16 22.3592C12.9412 22.3592 10.4615 19.8795 10.4615 16.8207V12.7181ZM16 8.41046C13.6209 8.41046 11.6923 10.3391 11.6923 12.7181V16.8207C11.6923 19.1998 13.6209 21.1284 16 21.1284C18.3791 21.1284 20.3077 19.1998 20.3077 16.8207V12.7181C20.3077 10.3391 18.3791 8.41046 16 8.41046ZM14.7814 11.9349C14.5459 12.1576 14.1746 12.16 13.9362 11.9345C13.6892 11.7011 13.6783 11.3116 13.9118 11.0646L14.3498 11.4787C13.9118 11.0646 13.9121 11.0642 13.9125 11.0639L13.9132 11.0632L13.9146 11.0617L13.9175 11.0587L13.9238 11.0522C13.9283 11.0477 13.9332 11.0429 13.9387 11.0377C13.9495 11.0274 13.9622 11.0157 13.977 11.003C14.0066 10.9776 14.0441 10.9481 14.0905 10.9162C14.1836 10.8522 14.3108 10.7797 14.4788 10.7118C14.8156 10.5756 15.3057 10.4617 16 10.4617C16.6943 10.4617 17.1844 10.5756 17.5212 10.7118C17.6892 10.7797 17.8164 10.8522 17.9095 10.9162C17.9559 10.9481 17.9934 10.9776 18.023 11.003C18.0378 11.0157 18.0505 11.0274 18.0613 11.0377C18.0668 11.0429 18.0717 11.0477 18.0762 11.0522L18.0825 11.0587L18.0854 11.0617L18.0868 11.0632L18.0875 11.0639C18.0879 11.0642 18.0882 11.0646 17.6502 11.4787L18.0882 11.0646C18.3217 11.3116 18.3108 11.7011 18.0638 11.9345C17.8254 12.16 17.4541 12.1576 17.2186 11.9349C17.217 11.9338 17.2149 11.9322 17.2122 11.9304C17.1934 11.9175 17.1453 11.8874 17.0597 11.8527C16.8893 11.7838 16.5589 11.6925 16 11.6925C15.4411 11.6925 15.1107 11.7838 14.9403 11.8527C14.8547 11.8874 14.8066 11.9175 14.7878 11.9304C14.7851 11.9322 14.783 11.9338 14.7814 11.9349ZM17.1948 11.9111L17.1952 11.9115L17.1954 11.9118C17.1952 11.9116 17.195 11.9113 17.1948 11.9111ZM14.7814 14.3965C14.5459 14.6191 14.1746 14.6215 13.9362 14.3961C13.6892 14.1626 13.6783 13.7731 13.9118 13.5261L14.359 13.9489C13.9118 13.5261 13.9121 13.5258 13.9125 13.5254L13.9132 13.5247L13.9146 13.5233L13.9175 13.5202L13.9238 13.5138C13.9283 13.5093 13.9332 13.5044 13.9387 13.4992C13.9495 13.4889 13.9622 13.4773 13.977 13.4646C14.0066 13.4392 14.0441 13.4096 14.0905 13.3777C14.1836 13.3137 14.3108 13.2412 14.4788 13.1733C14.8156 13.0371 15.3057 12.9233 16 12.9233C16.6943 12.9233 17.1844 13.0371 17.5212 13.1733C17.6892 13.2412 17.8164 13.3137 17.9095 13.3777C17.9559 13.4096 17.9934 13.4392 18.023 13.4646C18.0378 13.4773 18.0505 13.4889 18.0613 13.4992C18.0668 13.5044 18.0717 13.5093 18.0762 13.5138L18.0825 13.5202L18.0854 13.5233L18.0868 13.5247L18.0875 13.5254C18.0879 13.5258 18.0882 13.5261 17.641 13.9489L18.0882 13.5261C18.3217 13.7731 18.3108 14.1626 18.0638 14.3961C17.8254 14.6215 17.4541 14.6191 17.2186 14.3965C17.217 14.3953 17.2149 14.3938 17.2122 14.3919C17.1934 14.379 17.1453 14.3489 17.0597 14.3143C16.8893 14.2454 16.5589 14.154 16 14.154C15.4411 14.154 15.1107 14.2454 14.9403 14.3143C14.8547 14.3489 14.8066 14.379 14.7878 14.3919C14.7851 14.3938 14.783 14.3953 14.7814 14.3965ZM17.1952 14.3732C17.1951 14.373 17.195 14.3729 17.1949 14.3728C17.1948 14.3727 17.1946 14.3725 17.1945 14.3724C17.1945 14.3724 17.1945 14.3724 17.1945 14.3724L17.1949 14.3728L17.1952 14.3731L17.1952 14.3732ZM8.61538 14.5643C8.95525 14.5643 9.23077 14.8398 9.23077 15.1797V16.8207C9.23077 20.5593 12.2615 23.5899 16 23.5899C19.7385 23.5899 22.7692 20.5593 22.7692 16.8207V15.1797C22.7692 14.8398 23.0447 14.5643 23.3846 14.5643C23.7245 14.5643 24 14.8398 24 15.1797V16.8207C24 21.239 20.4183 24.8207 16 24.8207C11.5817 24.8207 8 21.239 8 16.8207V15.1797C8 14.8398 8.27552 14.5643 8.61538 14.5643Z" fill="#F3E7EE"/>
</svg>
