<svg width="28" height="29" viewBox="0 0 28 29" fill="none" xmlns="http://www.w3.org/2000/svg">
<circle cx="13" cy="13" r="13.4063" transform="matrix(-1 0 0 1 27 1.5)" fill="white" stroke="#F3E7EE" stroke-width="0.8125"/>
<path d="M10.1484 14.4998C10.1484 13.6489 9.45856 12.959 8.60764 12.959C7.75671 12.959 7.06689 13.6489 7.06689 14.4998C7.06689 15.3507 7.75671 16.0405 8.60764 16.0405C9.45856 16.0405 10.1484 15.3507 10.1484 14.4998Z" fill="#433F41"/>
<path d="M15.541 14.4998C15.541 13.6489 14.8512 12.959 14.0002 12.959C13.1493 12.959 12.4595 13.6489 12.4595 14.4998C12.4595 15.3507 13.1493 16.0405 14.0002 16.0405C14.8512 16.0405 15.541 15.3507 15.541 14.4998Z" fill="#433F41"/>
<path d="M20.9336 14.4998C20.9336 13.6489 20.2437 12.959 19.3928 12.959C18.5419 12.959 17.8521 13.6489 17.8521 14.4998C17.8521 15.3507 18.5419 16.0405 19.3928 16.0405C20.2437 16.0405 20.9336 15.3507 20.9336 14.4998Z" fill="#433F41"/>
</svg>
