<svg width="40" height="41" viewBox="0 0 40 41" fill="none" xmlns="http://www.w3.org/2000/svg">
<rect y="0.5" width="40" height="40" rx="20" fill="#F9F2F6"/>
<path d="M19.2019 15.1588C20.4355 14.2999 21.2958 13.703 21.973 13.3556C22.6496 13.0086 22.9602 13.0095 23.1622 13.0823C23.2859 13.1268 23.4084 13.1925 23.5176 13.2735C23.7097 13.416 23.8985 13.7017 24.0323 14.4625C24.106 14.8821 24.506 15.1625 24.9256 15.0887C25.3452 15.0149 25.6256 14.6149 25.5518 14.1953C25.397 13.3148 25.1128 12.536 24.4371 12.0345C24.2084 11.8648 23.9525 11.7271 23.6853 11.6308C22.8678 11.3362 22.0616 11.5762 21.2689 11.9828C20.4878 12.3835 19.5422 13.0418 18.37 13.858L18.1112 14.0382C17.6814 14.3374 17.5394 14.4331 17.3939 14.5009C17.2368 14.5741 17.0724 14.6261 16.9046 14.656C16.7503 14.6835 16.585 14.6863 16.0695 14.6863L15.9052 14.6862C14.7538 14.6854 13.9256 14.6849 13.1901 15.0442C12.5116 15.3757 11.8689 16.0182 11.5222 16.6975C11.1484 17.4302 11.1046 18.1944 11.042 19.2874L11.0345 19.4187C11.0131 19.7898 11 20.1565 11 20.5004C11 20.8442 11.0131 21.2109 11.0345 21.582L11.042 21.7133C11.1046 22.8063 11.1484 23.5705 11.5222 24.3032C11.8689 24.9825 12.5116 25.625 13.1901 25.9565C13.9256 26.3158 14.7538 26.3153 15.9052 26.3145L16.0695 26.3144C16.585 26.3144 16.7503 26.3172 16.9046 26.3447C17.0724 26.3746 17.2368 26.4266 17.3939 26.4998C17.5394 26.5676 17.6814 26.6633 18.1112 26.9625L18.37 27.1427C19.5422 27.9589 20.4878 28.6172 21.2689 29.0179C22.0616 29.4245 22.8678 29.6645 23.6853 29.3699C23.9525 29.2736 24.2084 29.1359 24.4371 28.9662C25.1128 28.4647 25.397 27.6859 25.5518 26.8054C25.6256 26.3858 25.3452 25.9858 24.9256 25.912C24.506 25.8382 24.106 26.1186 24.0323 26.5382C23.8985 27.299 23.7097 27.5847 23.5176 27.7272C23.4084 27.8083 23.2859 27.8739 23.1622 27.9184C22.9602 27.9912 22.6496 27.9921 21.973 27.6451C21.2958 27.2977 20.4355 26.7008 19.2019 25.8419L18.9426 25.6614C18.5826 25.4106 18.3268 25.2324 18.0456 25.1014C17.7682 24.9721 17.4759 24.8794 17.1754 24.8258C16.8702 24.7714 16.561 24.7715 16.1306 24.7716L16.0695 24.7716C14.6827 24.7716 14.2421 24.7533 13.8673 24.5702C13.4998 24.3907 13.0966 23.994 12.8965 23.6019C12.6868 23.191 12.6484 22.7676 12.5748 21.4931C12.5546 21.1428 12.5429 20.8068 12.5429 20.5004C12.5429 20.1939 12.5546 19.8579 12.5748 19.5076C12.6484 18.2332 12.6868 17.8097 12.8965 17.3988C13.0966 17.0067 13.4998 16.61 13.8673 16.4305C14.2421 16.2474 14.6827 16.2291 16.0695 16.2291L16.1306 16.2291C16.561 16.2292 16.8702 16.2293 17.1754 16.1749C17.4759 16.1213 17.7682 16.0286 18.0456 15.8993C18.3268 15.7683 18.5826 15.5901 18.9425 15.3394L19.2019 15.1588Z" fill="#433F41"/>
<path d="M22.6026 16.8692C22.3014 16.5679 21.8129 16.5679 21.5116 16.8692C21.2104 17.1704 21.2104 17.6589 21.5116 17.9601L24.0519 20.5004L21.5117 23.0406C21.2104 23.3419 21.2104 23.8303 21.5117 24.1316C21.8129 24.4328 22.3014 24.4328 22.6026 24.1316L25.1429 21.5913L27.6831 24.1315C27.9843 24.4328 28.4728 24.4328 28.774 24.1315C29.0753 23.8303 29.0753 23.3418 28.774 23.0406L26.2338 20.5004L28.7741 17.9601C29.0753 17.6589 29.0753 17.1704 28.7741 16.8692C28.4728 16.5679 27.9844 16.5679 27.6831 16.8692L25.1429 19.4094L22.6026 16.8692Z" fill="#433F41"/>
</svg>
