<svg width="46" height="40" viewBox="0 0 46 40" fill="none" xmlns="http://www.w3.org/2000/svg">
<path d="M39 24C36.2255 20.6363 32.3099 18.4115 28 17.75L36.5 26.25L39 24ZM45.5 16C42.0852 11.8586 37.8404 8.73717 33.1348 6.90722C28.4293 5.07727 23.4053 4.59419 18.5 5.5L23 10C26.5683 10.1163 30.0693 11.0031 33.2626 12.5998C36.4559 14.1965 39.266 16.4651 41.5 19.25L45.5 16ZM6.75 0L3 3.5L8.5 9C5.46992 10.8821 2.76766 13.2466 0.5 16L4.25 19.25C6.47005 16.5852 9.18715 14.3775 12.25 12.75L18 18.25C14.7658 19.3562 11.9073 21.3486 9.75 24L13.25 27.5C14.3306 26.0977 15.6863 24.9308 17.2339 24.0711C18.7815 23.2113 20.4884 22.6767 22.25 22.5L39.25 40L43 36.25L6.75 0Z" fill="#F56122"/>
</svg>
