<svg width="20" height="20" viewBox="0 0 20 20" fill="none" xmlns="http://www.w3.org/2000/svg">
<path fill-rule="evenodd" clip-rule="evenodd" d="M9.95218 1.0415L11.25 1.0415C11.5952 1.0415 11.875 1.32133 11.875 1.6665C11.875 2.01168 11.5952 2.2915 11.25 2.2915H9.99999C8.01814 2.2915 6.59462 2.29283 5.5113 2.43848C4.44597 2.58171 3.8037 2.85412 3.32899 3.32883C2.85427 3.80355 2.58186 4.44582 2.43863 5.51115C2.29298 6.59447 2.29166 8.01798 2.29166 9.99984C2.29166 11.9817 2.29298 13.4052 2.43863 14.4885C2.58186 15.5539 2.85427 16.1961 3.32899 16.6708C3.8037 17.1456 4.44597 17.418 5.5113 17.5612C6.59462 17.7068 8.01814 17.7082 9.99999 17.7082C11.9818 17.7082 13.4054 17.7068 14.4887 17.5612C15.554 17.418 16.1963 17.1456 16.671 16.6708C17.1457 16.1961 17.4181 15.5539 17.5613 14.4885C17.707 13.4052 17.7083 11.9817 17.7083 9.99984V8.74984C17.7083 8.40466 17.9881 8.12484 18.3333 8.12484C18.6785 8.12484 18.9583 8.40466 18.9583 8.74984V10.0476C18.9583 11.9713 18.9583 13.4788 18.8002 14.6551C18.6383 15.859 18.3006 16.809 17.5549 17.5547C16.8092 18.3004 15.8592 18.6382 14.6552 18.8C13.479 18.9582 11.9715 18.9582 10.0478 18.9582H9.95218C8.02852 18.9582 6.52098 18.9582 5.34474 18.8C4.1408 18.6382 3.19078 18.3004 2.4451 17.5547C1.69943 16.809 1.36165 15.859 1.19978 14.6551C1.04164 13.4788 1.04165 11.9713 1.04166 10.0477V9.95202C1.04165 8.02836 1.04164 6.52083 1.19978 5.34459C1.36165 4.14065 1.69943 3.19063 2.4451 2.44495C3.19078 1.69928 4.1408 1.36149 5.34474 1.19963C6.52098 1.04148 8.02851 1.04149 9.95218 1.0415ZM13.9754 1.89643C15.1153 0.756528 16.9635 0.756528 18.1034 1.89643C19.2433 3.03634 19.2433 4.88449 18.1034 6.02439L12.5633 11.5645C12.2539 11.8739 12.0601 12.0678 11.8438 12.2365C11.5891 12.4352 11.3134 12.6055 11.0218 12.7445C10.7742 12.8625 10.5141 12.9492 10.099 13.0875L7.67854 13.8943C7.23167 14.0433 6.73899 13.927 6.40592 13.5939C6.07284 13.2608 5.95653 12.7682 6.10549 12.3213L6.9123 9.90086C7.05065 9.48572 7.13731 9.22566 7.25532 8.97805C7.39431 8.6864 7.56466 8.41077 7.76336 8.15602C7.93206 7.93973 8.12591 7.74591 8.43536 7.4365L13.9754 1.89643ZM17.2195 2.78032C16.5678 2.12857 15.5111 2.12857 14.8593 2.78032L14.5455 3.09417C14.5644 3.17405 14.5909 3.26923 14.6277 3.37539C14.7471 3.71961 14.9731 4.17293 15.4 4.59983C15.8269 5.02673 16.2802 5.25272 16.6244 5.37215C16.7306 5.40898 16.8258 5.43544 16.9057 5.45436L17.2195 5.14051C17.8713 4.48876 17.8713 3.43207 17.2195 2.78032ZM15.9209 6.43908C15.491 6.25417 14.9901 5.95772 14.5161 5.48372C14.0421 5.00971 13.7457 4.50886 13.5607 4.07888L9.34791 8.29172C9.00082 8.63881 8.86469 8.77647 8.749 8.9248C8.60614 9.10795 8.48366 9.30613 8.38372 9.51582C8.30279 9.68563 8.24055 9.86895 8.08533 10.3346L7.72541 11.4144L8.58546 12.2744L9.6652 11.9145C10.1309 11.7593 10.3142 11.697 10.484 11.6161C10.6937 11.5162 10.8919 11.3937 11.075 11.2508C11.2234 11.1351 11.361 10.999 11.7081 10.6519L15.9209 6.43908Z" fill="#F9F2F6"/>
</svg>
