<svg xmlns="http://www.w3.org/2000/svg" width="26" height="20" viewBox="0 0 26 20" fill="none">
    <path d="M2.88889 0.611115C2.12271 0.611115 1.38791 0.915479 0.846136 1.45725C0.304364 1.99902 0 2.73382 0 3.5L0 16.5C0 17.2662 0.304364 18.001 0.846136 18.5428C1.38791 19.0845 2.12271 19.3889 2.88889 19.3889H8.66667V0.611115H2.88889Z" fill="#009A49"/>
    <path d="M8.66675 0.611115H17.3334V19.3889H8.66675V0.611115Z" fill="#EEEEEE"/>
    <path d="M23.111 0.611115H17.3333V19.3889H23.111C23.8772 19.3889 24.612 19.0845 25.1538 18.5428C25.6956 18.001 25.9999 17.2662 25.9999 16.5V3.5C25.9999 2.73382 25.6956 1.99902 25.1538 1.45725C24.612 0.915479 23.8772 0.611115 23.111 0.611115Z" fill="#009A49"/>
</svg>