<svg width="35" height="42" viewBox="0 0 35 42" fill="none" xmlns="http://www.w3.org/2000/svg">
<path d="M2.34634 1.18921C2.34634 1.18921 2.5384 1.31929 2.92254 1.57945C3.30793 1.83825 3.67884 2.06623 4.03526 2.26341C4.39169 2.46196 4.73741 2.59341 5.07243 2.65776C5.40744 2.72212 5.78024 2.84672 6.19082 3.03158C6.6014 3.2178 7.08126 3.39786 7.63038 3.57176C8.17824 3.74566 8.62031 3.93599 8.95658 4.14275C9.29286 4.35088 9.62913 4.55285 9.96541 4.74865C10.3017 4.94583 10.7431 5.14643 11.2897 5.35045C11.8363 5.55447 12.3514 5.73248 12.8351 5.88447C13.3187 6.03783 13.7362 6.21926 14.0876 6.42876C14.439 6.63963 14.8042 6.7745 15.1833 6.83338C15.5637 6.89089 15.9226 6.98811 16.2602 7.12504C16.5964 7.26197 16.9113 7.40711 17.2048 7.56047C17.4982 7.71383 17.7998 7.87746 18.1097 8.05136C18.4208 8.22389 18.747 8.50254 19.0883 8.8873C19.4283 9.27207 19.6953 9.57263 19.8893 9.78897C20.0832 10.0053 20.371 10.3497 20.7526 10.8221C21.1343 11.2931 21.4113 11.6971 21.5839 12.0339C21.7577 12.3721 21.9346 12.7254 22.1147 13.0937C22.2948 13.4634 22.4403 13.8455 22.5511 14.2398C22.6632 14.6342 22.8994 15.1791 23.2596 15.8747C23.621 16.5717 23.8887 17.0489 24.0625 17.3063C24.2363 17.5651 24.4706 17.9321 24.7653 18.4072C25.0612 18.8824 25.3264 19.3014 25.5606 19.6642C25.7936 20.0257 26.0656 20.3742 26.3767 20.7097C26.6866 21.0438 26.9347 21.421 27.1211 21.8414C27.3075 22.2604 27.4359 22.7102 27.5065 23.1908C27.5757 23.6728 27.6822 24.2075 27.8257 24.7949C27.9681 25.3837 28.0783 25.8376 28.1563 26.1567C28.2357 26.4771 28.3144 26.777 28.3925 27.0563C28.4706 27.337 28.5222 27.6512 28.5474 27.999C28.5739 28.3468 28.589 28.6871 28.5927 29.0198C28.5965 29.3539 28.6035 29.7394 28.6135 30.1762C28.6236 30.6144 28.6268 31.0963 28.623 31.6222C28.6179 32.148 28.6179 32.6334 28.623 33.0784C28.628 33.5234 28.6343 33.9267 28.6419 34.2881C28.6482 34.6496 28.6545 35.0036 28.6608 35.35C28.6671 35.6964 28.6727 36.0415 28.6778 36.3852C28.6828 36.7289 28.6878 37.0719 28.6929 37.4142C28.6967 37.7579 28.7004 38.1639 28.7042 38.6322C28.7067 39.1005 28.6967 39.4086 28.674 39.5564C28.6526 39.7043 28.6098 39.8447 28.5455 39.9775C28.48 40.109 28.3975 40.226 28.298 40.3287C28.1985 40.4314 28.0864 40.5143 27.9618 40.5772C27.8358 40.6402 27.7048 40.6799 27.5688 40.6964C27.4315 40.7128 27.2961 40.7046 27.1626 40.6717C27.0279 40.6402 26.9013 40.5855 26.7829 40.5074C26.6658 40.4307 26.5625 40.3356 26.4731 40.2219C26.3837 40.1083 26.3138 39.9816 26.2634 39.8419C26.2117 39.7036 26.1822 39.5592 26.1746 39.4086C26.167 39.2593 26.1821 39.1128 26.2199 38.969C26.2565 38.8252 26.3131 38.6911 26.39 38.5665C26.468 38.4432 26.5619 38.3364 26.6714 38.246C26.781 38.1557 26.9007 38.0865 27.0304 38.0386C27.1614 37.9907 27.2955 37.9667 27.4328 37.9667C27.5701 37.9667 27.7042 37.9907 27.8352 38.0386C27.9649 38.0865 28.0846 38.1557 28.1941 38.246C28.3037 38.3364 28.3975 38.4432 28.4756 38.5665C28.5524 38.6911 28.6091 38.8252 28.6456 38.969C28.6822 39.1128 28.6967 39.26 28.6891 39.4106C28.6815 39.5599 28.6526 39.7036 28.6022 39.8419C28.5506 39.9816 28.4807 40.1083 28.3925 40.2219C28.3031 40.3356 28.1992 40.4314 28.0808 40.5095C27.9636 40.5861 27.8377 40.6402 27.7029 40.6717C27.5682 40.7046 27.4328 40.7128 27.2968 40.6964C27.1595 40.6799 27.0285 40.6402 26.9038 40.5772C26.7791 40.5143 26.6664 40.4314 26.5657 40.3287C26.4662 40.226 26.3843 40.1083 26.3201 39.9754C26.2558 39.844 26.2124 39.7043 26.1897 39.5564C26.167 39.4086 26.1557 39.3346 26.1557 39.3346C26.1557 39.3346 26.1576 39.1005 26.1614 38.6322C26.1651 38.1639 26.1689 37.7579 26.1727 37.4142C26.1765 37.0719 26.1809 36.7289 26.1859 36.3852C26.1922 36.0415 26.1979 35.6964 26.2029 35.35C26.2092 35.0036 26.2162 34.6503 26.2237 34.2902C26.23 33.9287 26.2357 33.5254 26.2407 33.0804C26.2458 32.6354 26.2451 32.1527 26.2388 31.6324C26.2338 31.1121 26.2319 30.6411 26.2332 30.2193C26.2332 29.7976 26.2275 29.4395 26.2162 29.1451C26.2048 28.8494 26.1922 28.5543 26.1784 28.2599C26.1633 27.9669 26.0883 27.6423 25.9536 27.2863C25.8188 26.9317 25.7457 26.5757 25.7344 26.2183C25.7243 25.8595 25.6532 25.5097 25.5209 25.1687C25.3874 24.8278 25.3156 24.4889 25.3056 24.152C25.2968 23.8166 25.2464 23.4893 25.1544 23.1703C25.0625 22.8512 24.8843 22.5034 24.6198 22.1269C24.3553 21.7503 24.1412 21.4361 23.9775 21.1841C23.815 20.9322 23.6614 20.609 23.5165 20.2147C23.3717 19.819 23.2111 19.4979 23.0348 19.2514C22.8572 19.0035 22.667 18.716 22.4642 18.3887C22.2602 18.0629 22.0385 17.6938 21.7992 17.2817C21.5599 16.8695 21.3005 16.341 21.0209 15.696C20.7413 15.0525 20.5026 14.5534 20.3049 14.1987C20.1059 13.8441 19.9327 13.5251 19.7854 13.2416C19.6368 12.9595 19.4145 12.6268 19.1185 12.2434C18.8225 11.86 18.4957 11.4451 18.138 10.9987C17.7816 10.5523 17.4573 10.2552 17.1651 10.1073C16.8729 9.95808 16.5215 9.7698 16.1109 9.5425C15.6991 9.31383 15.3238 9.17417 14.985 9.1235C14.6474 9.07147 14.3389 8.98931 14.0593 8.87703C13.7797 8.76475 13.5051 8.62988 13.2356 8.47241C12.9661 8.31631 12.6997 8.18418 12.4365 8.076C12.172 7.96783 11.8187 7.81105 11.3766 7.60566C10.9358 7.3989 10.5145 7.23801 10.1128 7.12299C9.711 7.0066 9.34198 6.82106 9.0057 6.56637C8.66943 6.31169 8.38479 6.10219 8.15179 5.93787C7.91879 5.77219 7.65998 5.62705 7.37534 5.50244C7.0907 5.37784 6.8111 5.26487 6.53654 5.16355C6.26072 5.06085 5.97545 4.93419 5.68074 4.78357C5.38603 4.63295 5.00379 4.50355 4.53401 4.39538C4.06423 4.28721 3.62909 4.12974 3.22858 3.92298C2.82934 3.71485 2.43009 3.49576 2.03084 3.26572C1.63159 3.03431 1.40237 2.89465 1.34318 2.84672C1.28398 2.7988 1.23109 2.74334 1.18449 2.68036C1.13789 2.61874 1.09885 2.55164 1.06736 2.47907C1.03461 2.4065 1.01131 2.33119 0.997459 2.25314C0.982346 2.17372 0.976048 2.09499 0.978567 2.01694C0.981086 1.93615 0.993051 1.85742 1.01446 1.78074C1.03461 1.70406 1.06295 1.6308 1.09947 1.56097C1.136 1.49114 1.18008 1.42746 1.23172 1.36995C1.2821 1.31108 1.33877 1.26041 1.40174 1.21796C1.46346 1.17415 1.52958 1.13992 1.60011 1.11527C1.67064 1.08925 1.74243 1.07282 1.81547 1.06597C1.88726 1.0605 1.95968 1.06392 2.03273 1.07624C2.10578 1.08857 2.17631 1.11048 2.24432 1.14197C2.31233 1.17346 2.34634 1.18921 2.34634 1.18921Z" fill="#CD9CB8"/>
<path d="M26.6158 40.1495C26.6158 40.1495 26.3695 39.9578 25.8771 39.5744C25.3834 39.1924 24.9929 38.9384 24.7058 38.8124C24.4186 38.6865 24.1579 38.5126 23.9237 38.2907C23.6907 38.0689 23.4149 37.8046 23.0962 37.4979C22.7776 37.1926 22.4854 36.8824 22.2196 36.5675C21.9551 36.2512 21.7108 35.9 21.4866 35.5138C21.2612 35.1263 21.1163 34.6772 21.0521 34.1665C20.9866 33.6557 20.9602 33.3339 20.9728 33.2011C20.9854 33.0697 21.0168 32.9437 21.0672 32.8232C21.1176 32.7027 21.1844 32.5945 21.2675 32.4987C21.3519 32.4015 21.4476 32.322 21.5546 32.2604C21.6617 32.1974 21.7757 32.155 21.8966 32.1331C22.0162 32.1112 22.1365 32.1105 22.2574 32.131C22.3771 32.1516 22.491 32.1926 22.5994 32.2543C22.7064 32.3159 22.8021 32.3946 22.8865 32.4905C22.9709 32.5863 23.0389 32.6945 23.0905 32.815C23.1422 32.9341 23.1749 33.0594 23.1888 33.1909C23.2026 33.3237 23.1963 33.4544 23.1699 33.5831C23.1447 33.7132 23.1006 33.8351 23.0376 33.9487C22.9759 34.0624 22.8985 34.1624 22.8053 34.2486C22.7133 34.3349 22.6107 34.4027 22.4973 34.452C22.3852 34.5013 22.2681 34.53 22.146 34.5382C22.0238 34.5451 21.9041 34.5314 21.787 34.4971C21.6699 34.4615 21.5603 34.4068 21.4583 34.3328C21.3575 34.2603 21.27 34.1713 21.1957 34.0658C21.1214 33.9604 21.0647 33.8447 21.0257 33.7187C20.9866 33.5941 20.9671 33.4654 20.9671 33.3326C20.9658 33.1998 20.9847 33.071 21.0238 32.9464C21.0616 32.8205 21.117 32.7048 21.19 32.5993C21.2643 32.4925 21.3512 32.4021 21.4507 32.3282C21.5515 32.2529 21.6604 32.1974 21.7776 32.1618C21.8959 32.1262 22.0156 32.1112 22.1365 32.1167C22.2587 32.1235 22.3764 32.1516 22.4898 32.2009C22.6031 32.2488 22.7064 32.3152 22.7996 32.4001C22.8928 32.4864 22.9709 32.5856 23.0339 32.6979C23.0968 32.8116 23.1415 32.9334 23.168 33.0635C23.1957 33.1922 23.2096 33.2566 23.2096 33.2566C23.2083 33.2566 23.1982 33.4284 23.1793 33.7721C23.1604 34.1172 23.231 34.4143 23.3909 34.6635C23.5496 34.9127 23.7631 35.2146 24.0314 35.5693C24.2984 35.9239 24.5314 36.2409 24.7304 36.5203C24.9281 36.7982 25.1926 37.0214 25.5238 37.1898C25.855 37.3583 26.2889 37.5972 26.8255 37.9067C27.3607 38.2161 27.6586 38.3975 27.719 38.4509C27.7795 38.503 27.833 38.5625 27.8796 38.6296C27.9262 38.6954 27.9653 38.7672 27.9967 38.8453C28.0282 38.922 28.0503 39.0021 28.0629 39.0856C28.0767 39.1678 28.0805 39.2499 28.0742 39.3321C28.0692 39.417 28.0547 39.4991 28.0308 39.5785C28.0068 39.6593 27.9747 39.7353 27.9344 39.8065C27.8928 39.8777 27.8444 39.9428 27.7889 40.0017C27.7348 40.0605 27.6743 40.1112 27.6076 40.1536C27.5408 40.1961 27.4703 40.2296 27.396 40.2543C27.3217 40.2789 27.2461 40.2933 27.1693 40.2974C27.0925 40.3015 27.0163 40.2954 26.9407 40.2789C26.8651 40.2625 26.7921 40.2372 26.7215 40.2029C26.651 40.1673 26.6158 40.1495 26.6158 40.1495Z" fill="#CD9CB8"/>
<path d="M26.7838 39.7037C26.7838 39.7037 26.8102 39.5626 26.8631 39.2806C26.916 38.9971 26.9884 38.6829 27.0804 38.3378C27.1723 37.9928 27.3184 37.6491 27.5187 37.3067C27.7189 36.9644 27.9003 36.6139 28.0628 36.2551C28.2252 35.8978 28.4847 35.4911 28.8411 35.0351C29.1988 34.5805 29.5332 34.1601 29.8443 33.774C30.1553 33.3892 30.423 33.0818 30.6472 32.8518C30.8701 32.6231 31.0647 32.3739 31.2309 32.1042C31.3984 31.8344 31.5886 31.5886 31.8014 31.3668C32.0143 31.145 32.0962 31.0149 32.047 30.9766C31.9979 30.9396 32.0067 30.8622 32.0735 30.7445C32.1402 30.6281 32.2221 30.5254 32.3191 30.4364C32.4173 30.3487 32.5256 30.2803 32.644 30.231C32.7624 30.1817 32.8852 30.1536 33.0124 30.1468C33.1396 30.1413 33.2643 30.1584 33.3865 30.1981C33.5086 30.2365 33.6214 30.2947 33.7246 30.3727C33.8292 30.4521 33.9192 30.5473 33.9948 30.6582C34.0704 30.7691 34.1277 30.8903 34.1667 31.0217C34.2057 31.1532 34.2246 31.2881 34.2234 31.4264C34.2221 31.5647 34.2001 31.6989 34.1573 31.8289C34.1157 31.959 34.0559 32.0788 33.9778 32.1884C33.8997 32.2965 33.8078 32.389 33.702 32.4657C33.5949 32.541 33.4803 32.5964 33.3581 32.632C33.2347 32.6676 33.11 32.6806 32.9841 32.671C32.8569 32.6615 32.7347 32.6307 32.6176 32.5786C32.5004 32.5252 32.394 32.4533 32.2983 32.363C32.2013 32.2726 32.1213 32.1678 32.0584 32.0487C31.9941 31.9296 31.9488 31.8022 31.9224 31.6667C31.8972 31.5311 31.8921 31.3949 31.9072 31.2579C31.9224 31.121 31.9576 30.9903 32.013 30.8657C32.0672 30.741 32.139 30.6288 32.2284 30.5288C32.3166 30.4302 32.4173 30.3494 32.5307 30.2864C32.6428 30.2235 32.7618 30.1817 32.8877 30.1612C33.0137 30.1406 33.139 30.142 33.2637 30.1653C33.3884 30.1899 33.5068 30.2351 33.6188 30.3008C33.7297 30.3679 33.8285 30.4521 33.9154 30.5535C34.0011 30.6548 34.0697 30.7684 34.1214 30.8944C34.1743 31.0204 34.2064 31.1525 34.2177 31.2908C34.2303 31.4277 34.2221 31.5633 34.1932 31.6975C34.1642 31.8317 34.1497 31.8988 34.1497 31.8988C34.1497 31.8988 34.0364 32.0514 33.8096 32.3568C33.5829 32.6608 33.4028 32.9654 33.2693 33.2708C33.1371 33.5748 32.8984 33.8993 32.5533 34.2443C32.2083 34.5908 31.945 34.8797 31.7637 35.1111C31.5823 35.3439 31.3241 35.6458 30.9891 36.0169C30.6553 36.388 30.3802 36.7166 30.1635 37.0028C29.9456 37.2889 29.724 37.6087 29.4985 37.9619C29.2731 38.3152 29.1207 38.6356 29.0414 38.9232C28.9607 39.2107 28.8877 39.4942 28.8222 39.7735C28.7555 40.0501 28.7082 40.2295 28.6805 40.3116C28.6541 40.3938 28.6182 40.4712 28.5728 40.5437C28.5288 40.6149 28.4771 40.68 28.4179 40.7388C28.3587 40.7977 28.2939 40.8477 28.2233 40.8888C28.1528 40.9312 28.0791 40.9634 28.0023 40.9853C27.9255 41.0072 27.8468 41.0189 27.7662 41.0202C27.6868 41.0216 27.6087 41.012 27.5319 40.9915C27.4538 40.9723 27.3789 40.9429 27.3071 40.9032C27.2353 40.8648 27.1692 40.8169 27.1087 40.7594C27.0483 40.7032 26.9947 40.6396 26.9481 40.5684C26.9015 40.4972 26.8638 40.4212 26.8348 40.3404C26.8058 40.2596 26.7857 40.1761 26.7743 40.0898C26.763 40.0035 26.7617 39.918 26.7706 39.8331C26.7794 39.7468 26.7838 39.7037 26.7838 39.7037Z" fill="#CD9CB8"/>
</svg>
