<svg width="30" height="30" viewBox="0 0 30 30" fill="none" xmlns="http://www.w3.org/2000/svg">
<circle cx="15" cy="15" r="15" fill="#FEEBE8"/>
<path d="M11.5909 9C11.169 9 10.7643 9.16761 10.466 9.46597C10.1676 9.76432 10 10.169 10 10.5909V19.6818C10 20.56 10.7127 21.2727 11.5909 21.2727H12.5C12.9219 21.2727 13.3266 21.1051 13.6249 20.8068C13.9233 20.5084 14.0909 20.1038 14.0909 19.6818V10.5909C14.0909 10.169 13.9233 9.76432 13.6249 9.46597C13.3266 9.16761 12.9219 9 12.5 9H11.5909ZM17.5 9C17.0781 9 16.6734 9.16761 16.3751 9.46597C16.0767 9.76432 15.9091 10.169 15.9091 10.5909V19.6818C15.9091 20.56 16.6218 21.2727 17.5 21.2727H18.4091C18.831 21.2727 19.2357 21.1051 19.534 20.8068C19.8324 20.5084 20 20.1038 20 19.6818V10.5909C20 10.169 19.8324 9.76432 19.534 9.46597C19.2357 9.16761 18.831 9 18.4091 9H17.5Z" fill="#F13918"/>
</svg>
