<svg width="22" height="21" viewBox="0 0 22 21" fill="none" xmlns="http://www.w3.org/2000/svg">
<path fill-rule="evenodd" clip-rule="evenodd" d="M9.19358 0.75H13.3064C15.1442 0.749984 16.5998 0.749972 17.739 0.903135C18.9114 1.06076 19.8604 1.39288 20.6088 2.14124C21.3571 2.88961 21.6892 3.83856 21.8469 5.01098C22 6.15019 22 7.60583 22 9.44359V9.5C22 9.91421 21.6642 10.25 21.25 10.25C20.8358 10.25 20.5 9.91421 20.5 9.5C20.5 7.59318 20.4984 6.23851 20.3602 5.21085C20.225 4.20476 19.9713 3.62511 19.5481 3.2019C19.1249 2.77869 18.5452 2.52502 17.5392 2.38976C16.5115 2.25159 15.1568 2.25 13.25 2.25H9.25C7.34318 2.25 5.98851 2.25159 4.96085 2.38976C3.95476 2.52502 3.37511 2.77869 2.9519 3.2019C2.52869 3.62511 2.27502 4.20476 2.13976 5.21085C2.00159 6.23851 2 7.59318 2 9.5V11.5C2 13.4068 2.00159 14.7615 2.13976 15.7892C2.27502 16.7952 2.52869 17.3749 2.9519 17.7981C3.37511 18.2213 3.95476 18.475 4.96085 18.6102C5.98851 18.7484 7.34318 18.75 9.25 18.75H10.25C10.6642 18.75 11 19.0858 11 19.5C11 19.9142 10.6642 20.25 10.25 20.25H9.19359C7.35583 20.25 5.90019 20.25 4.76098 20.0969C3.58856 19.9392 2.63961 19.6071 1.89124 18.8588C1.14288 18.1104 0.810763 17.1614 0.653135 15.989C0.499972 14.8498 0.499984 13.3942 0.5 11.5564V9.44358C0.499984 7.60582 0.499972 6.15019 0.653135 5.01098C0.810763 3.83856 1.14288 2.88961 1.89124 2.14124C2.63961 1.39288 3.58856 1.06076 4.76098 0.903135C5.90019 0.749972 7.35582 0.749984 9.19358 0.75ZM6 6C6 5.58579 6.33579 5.25 6.75 5.25H9.75C10.1642 5.25 10.5 5.58579 10.5 6C10.5 6.41421 10.1642 6.75 9.75 6.75H8.56066L11.2803 9.46967C11.5732 9.76256 11.5732 10.2374 11.2803 10.5303C10.9874 10.8232 10.5126 10.8232 10.2197 10.5303L7.5 7.81066V9C7.5 9.41422 7.16421 9.75 6.75 9.75C6.33579 9.75 6 9.41422 6 9V6ZM16.198 10.75H17.302C18.2005 10.75 18.9497 10.7499 19.5445 10.8299C20.1723 10.9143 20.7391 11.1 21.1945 11.5555C21.65 12.0109 21.8357 12.5777 21.9201 13.2055C22.0001 13.8003 22 14.5495 22 15.448V15.552C22 16.4505 22.0001 17.1997 21.9201 17.7945C21.8357 18.4223 21.65 18.9891 21.1945 19.4445C20.7391 19.9 20.1723 20.0857 19.5445 20.1701C18.9497 20.2501 18.2005 20.25 17.302 20.25H16.198C15.2995 20.25 14.5503 20.2501 13.9555 20.1701C13.3277 20.0857 12.7609 19.9 12.3055 19.4445C11.85 18.9891 11.6643 18.4223 11.5799 17.7945C11.4999 17.1997 11.5 16.4505 11.5 15.552V15.448C11.5 14.5495 11.4999 13.8003 11.5799 13.2055C11.6643 12.5777 11.85 12.0109 12.3055 11.5555C12.7609 11.1 13.3277 10.9143 13.9555 10.8299C14.5503 10.7499 15.2995 10.75 16.198 10.75ZM14.1554 12.3165C13.6939 12.3786 13.4964 12.4858 13.3661 12.6161C13.2358 12.7464 13.1286 12.9439 13.0665 13.4054C13.0016 13.8884 13 14.536 13 15.5C13 16.464 13.0016 17.1116 13.0665 17.5946C13.1286 18.0561 13.2358 18.2536 13.3661 18.3839C13.4964 18.5142 13.6939 18.6214 14.1554 18.6835C14.6384 18.7484 15.286 18.75 16.25 18.75H17.25C18.214 18.75 18.8616 18.7484 19.3446 18.6835C19.8061 18.6214 20.0036 18.5142 20.1339 18.3839C20.2642 18.2536 20.3714 18.0561 20.4335 17.5946C20.4984 17.1116 20.5 16.464 20.5 15.5C20.5 14.536 20.4984 13.8884 20.4335 13.4054C20.3714 12.9439 20.2642 12.7464 20.1339 12.6161C20.0036 12.4858 19.8061 12.3786 19.3446 12.3165C18.8616 12.2516 18.214 12.25 17.25 12.25H16.25C15.286 12.25 14.6384 12.2516 14.1554 12.3165Z" fill="#433F41"/>
</svg>
