<svg width="26" height="27" viewBox="0 0 26 27" fill="none" xmlns="http://www.w3.org/2000/svg">
<rect y="0.65625" width="26" height="26" rx="13" fill="#83074E"/>
<g clip-path="url(#clip0_3088_11445)">
<path fill-rule="evenodd" clip-rule="evenodd" d="M10.4208 8.80545C9.56148 8.33818 8.53125 8.95447 8.53125 9.88257L8.53125 17.4303C8.53125 18.3584 9.56148 18.9747 10.4208 18.5074L17.3606 14.7335C18.227 14.2624 18.227 13.0505 17.3606 12.5793L10.4208 8.80545ZM7.71875 9.88257C7.71875 8.30903 9.43407 7.34403 10.8089 8.09166L17.7487 11.8655C19.181 12.6444 19.181 14.6685 17.7487 15.4473L10.8089 19.2212C9.43407 19.9688 7.71875 19.0038 7.71875 17.4303L7.71875 9.88257Z" fill="#F9F2F6"/>
</g>
<defs>
<clipPath id="clip0_3088_11445">
<rect width="13" height="13" fill="white" transform="translate(6.5 7.15625)"/>
</clipPath>
</defs>
</svg>
