<svg width="23" height="26" viewBox="0 0 23 26" fill="none" xmlns="http://www.w3.org/2000/svg">
<path d="M1.09402 1.36719C0.818194 1.66607 0.658569 2.13141 0.658569 2.73405V24.2296C0.658569 24.8323 0.818194 25.2976 1.09402 25.5965L1.16209 25.6621L12.7983 13.6216V13.3373L1.16209 1.29672L1.09402 1.36719Z" fill="url(#paint0_linear_3489_15466)"/>
<path d="M16.6727 17.6387L12.7982 13.6231V13.3388L16.6773 9.32329L16.7642 9.37553L21.3581 12.0813C22.6692 12.8492 22.6692 14.1128 21.3581 14.8855L16.7642 17.5864L16.6727 17.6387Z" fill="url(#paint1_linear_3489_15466)"/>
<path d="M16.7643 17.5856L12.7983 13.4801L1.09399 25.5972C1.52944 26.071 2.23954 26.1281 3.04706 25.6543L16.7643 17.5856Z" fill="url(#paint2_linear_3489_15466)"/>
<path d="M16.7643 9.37502L3.04706 1.30628C2.23954 0.837298 1.52944 0.8944 1.09399 1.36825L12.7983 13.4805L16.7643 9.37502Z" fill="url(#paint3_linear_3489_15466)"/>
<defs>
<linearGradient id="paint0_linear_3489_15466" x1="11.7651" y1="24.4535" x2="-4.53746" y2="8.7047" gradientUnits="userSpaceOnUse">
<stop stop-color="#00A0FF"/>
<stop offset="0.0066" stop-color="#00A1FF"/>
<stop offset="0.2601" stop-color="#00BEFF"/>
<stop offset="0.5122" stop-color="#00D2FF"/>
<stop offset="0.7604" stop-color="#00DFFF"/>
<stop offset="1" stop-color="#00E3FF"/>
</linearGradient>
<linearGradient id="paint1_linear_3489_15466" x1="23.0653" y1="13.4796" x2="0.345104" y2="13.4796" gradientUnits="userSpaceOnUse">
<stop stop-color="#FFE000"/>
<stop offset="0.4087" stop-color="#FFBD00"/>
<stop offset="0.7754" stop-color="#FFA500"/>
<stop offset="1" stop-color="#FF9C00"/>
</linearGradient>
<linearGradient id="paint2_linear_3489_15466" x1="14.6077" y1="11.2483" x2="-7.49998" y2="-10.1083" gradientUnits="userSpaceOnUse">
<stop stop-color="#FF3A44"/>
<stop offset="1" stop-color="#C31162"/>
</linearGradient>
<linearGradient id="paint3_linear_3489_15466" x1="-1.85222" y1="32.749" x2="8.01984" y2="23.2124" gradientUnits="userSpaceOnUse">
<stop stop-color="#32A071"/>
<stop offset="0.0685" stop-color="#2DA771"/>
<stop offset="0.4762" stop-color="#15CF74"/>
<stop offset="0.8009" stop-color="#06E775"/>
<stop offset="1" stop-color="#00F076"/>
</linearGradient>
</defs>
</svg>
