<svg width="46" height="46" viewBox="0 0 46 46" fill="none" xmlns="http://www.w3.org/2000/svg">
    <defs>
        <!-- Define the gradient to be used for the filled part -->
        <linearGradient id="halfGradient" x1="-1.30412" y1="9.96666" x2="49.6352" y2="13.5818" gradientUnits="userSpaceOnUse">
            <stop stop-color="#FFB629" />
            <stop offset="0.5" stop-color="#FFDA56" />
            <stop offset="1" stop-color="#FFD7A6" />
        </linearGradient>

        <!-- Create a clipping path to only fill the left half of the star -->
        <clipPath id="halfStarClip">
            <rect x="0" y="0" width="23" height="46" />
        </clipPath>
    </defs>

    <!-- Draw the star and use the clipping path to show only half the fill -->

    <!-- Draw the remaining outline of the star in its original style -->
    <path d="M23 37.1887L12.2034 45.3803C11.6685 45.8153 11.0849 46.0211 10.4526 45.998C9.82042 45.9748 9.26114 45.793 8.77481 45.4528C8.28848 45.1126 7.91205 44.6535 7.64555 44.0754C7.37904 43.4974 7.36639 42.8692 7.60761 42.1906L11.7657 28.7795L1.18804 21.3128C0.60444 20.9262 0.239692 20.4187 0.0937924 19.7905C-0.052107 19.1622 -0.0277902 18.5823 0.166742 18.0506C0.361275 17.519 0.701707 17.0473 1.18804 16.6356C1.67437 16.2238 2.25797 16.0189 2.93883 16.0209H15.9968L20.2279 2.1023C20.4711 1.4257 20.8485 0.905688 21.3601 0.542259C21.8717 0.17883 22.4183 -0.00191779 23 1.53423e-05C23.5816 0.00194848 24.1293 0.183664 24.6428 0.545159C25.1564 0.906655 25.5328 1.4257 25.7721 2.1023L30.0032 16.0209H43.0612C43.742 16.0209 44.3256 16.2267 44.812 16.6385C45.2983 17.0503 45.6387 17.521 45.8333 18.0506C46.0278 18.5803 46.0521 19.1603 45.9062 19.7905C45.7603 20.4207 45.3956 20.9281 44.812 21.3128L34.2343 28.7795L38.3924 42.1906C38.6356 42.8672 38.6239 43.4955 38.3574 44.0754C38.0909 44.6554 37.7135 45.1145 37.2252 45.4528C36.7369 45.7911 36.1776 45.9728 35.5473 45.998C34.9171 46.0231 34.3335 45.8172 33.7966 45.3803L23 37.1887Z" fill="none" stroke="url(#halfGradient)" />
</svg>
