<svg width="20" height="21" viewBox="0 0 20 21" fill="none" xmlns="http://www.w3.org/2000/svg">
<path d="M1.66699 10.4998C1.66699 6.57147 1.66699 4.60728 2.88738 3.38689C4.10777 2.1665 6.07195 2.1665 10.0003 2.1665C13.9287 2.1665 15.8929 2.1665 17.1133 3.38689C18.3337 4.60728 18.3337 6.57147 18.3337 10.4998C18.3337 14.4282 18.3337 16.3924 17.1133 17.6128C15.8929 18.8332 13.9287 18.8332 10.0003 18.8332C6.07195 18.8332 4.10777 18.8332 2.88738 17.6128C1.66699 16.3924 1.66699 14.4282 1.66699 10.4998Z" stroke="#433F41" stroke-width="1.2"/>
<circle cx="13.3337" cy="7.16667" r="1.66667" stroke="#433F41" stroke-width="1.2"/>
<path d="M1.66699 10.9169L3.12665 9.63976C3.88604 8.97529 5.03056 9.0134 5.74406 9.72691L9.31883 13.3017C9.89153 13.8744 10.793 13.9525 11.4557 13.4868L11.7042 13.3121C12.6577 12.642 13.9478 12.7196 14.814 13.4993L17.5003 15.9169" stroke="#433F41" stroke-width="1.2" stroke-linecap="round"/>
</svg>
