<svg width="26" height="27" viewBox="0 0 26 27" fill="none" xmlns="http://www.w3.org/2000/svg">
    <path fill-rule="evenodd" clip-rule="evenodd" d="M20.6471 7.6589C20.6471 11.8824 17.2235 15.306 13 15.306C8.77653 15.306 5.35294 11.8824 5.35294 7.6589C5.35294 3.43543 8.77653 0.0118408 13 0.0118408C17.2235 0.0118408 20.6471 3.43543 20.6471 7.6589ZM19.1176 7.6589C19.1176 9.2814 18.4731 10.8374 17.3258 11.9847C16.1786 13.132 14.6225 13.7765 13 13.7765C11.3775 13.7765 9.82145 13.132 8.67417 11.9847C7.52689 10.8374 6.88236 9.2814 6.88236 7.6589C6.88236 6.0364 7.52689 4.48035 8.67417 3.33307C9.82145 2.18579 11.3775 1.54125 13 1.54125C14.6225 1.54125 16.1786 2.18579 17.3258 3.33307C18.4731 4.48035 19.1176 6.0364 19.1176 7.6589Z" fill="#83074E"/>
    <path d="M17.9706 16.8353C17.8892 16.8168 17.804 16.8266 17.7289 16.863C17.6539 16.8994 17.5935 16.9603 17.5576 17.0357L14.5294 25.6845V22.953L14.0897 19.8781C14.2301 19.8485 14.3593 19.7801 14.4626 19.6805C14.5659 19.581 14.6392 19.4544 14.6739 19.3153L15.0563 17.7858C15.0845 17.6732 15.0867 17.5555 15.0627 17.4418C15.0386 17.3282 14.989 17.2215 14.9176 17.1299C14.8462 17.0382 14.7548 16.9641 14.6505 16.9131C14.5461 16.862 14.4315 16.8354 14.3153 16.8353H11.6862C11.5701 16.8353 11.4555 16.8618 11.3511 16.9128C11.2467 16.9637 11.1553 17.0378 11.0838 17.1293C11.0123 17.2209 10.9626 17.3275 10.9384 17.4411C10.9143 17.5547 10.9164 17.6724 10.9445 17.7851L11.3268 19.3145C11.3615 19.4538 11.4347 19.5805 11.538 19.6802C11.6413 19.7799 11.7706 19.8484 11.9111 19.8781L11.4706 22.953V25.0146L8.44235 17.0357C8.40654 16.9603 8.34612 16.8994 8.27106 16.863C8.196 16.8266 8.11077 16.8168 8.02941 16.8353C7.73708 16.9059 7.44445 16.9752 7.15153 17.0433C5.42176 17.4486 3.28365 17.9487 2.14729 18.6951C0.799117 19.5798 0 20.6229 0 21.8059V26.7765H26V21.8059C26 20.6229 25.2009 19.5806 23.8527 18.6951C22.7164 17.9487 20.5782 17.4486 18.8485 17.0433C18.5403 16.9714 18.2444 16.9026 17.9706 16.8353Z" fill="#83074E"/>
</svg>
