<svg width="29" height="30" viewBox="0 0 29 30" fill="none" xmlns="http://www.w3.org/2000/svg">
<path d="M16.9549 22.2874L21.8097 19.8599C26.0508 17.7394 28.1714 16.6791 28.1714 15C28.1714 13.321 26.0508 12.2607 21.8097 10.1402L16.9549 7.71274C13.5319 6.00124 11.8204 5.14549 10.8282 5.40817C9.88426 5.65806 9.14705 6.39527 8.89716 7.33917C8.63448 8.33139 9.49023 10.0429 11.2017 13.4659C11.4138 13.8901 11.8475 14.1723 12.3218 14.1745L20.0718 14.2106C20.5079 14.2126 20.8597 14.5677 20.8576 15.0037C20.8556 15.4397 20.5005 15.7915 20.0645 15.7895L12.4396 15.754C11.9168 15.7516 11.4355 16.0667 11.2017 16.5342C9.49024 19.9572 8.63448 21.6687 8.89716 22.6609C9.14705 23.6048 9.88425 24.342 10.8282 24.5919C11.8204 24.8546 13.5319 23.9988 16.9549 22.2874Z" fill="#CD9CB8"/>
</svg>
