<svg width="29" height="29" viewBox="0 0 29 29" fill="none" xmlns="http://www.w3.org/2000/svg">
<path d="M16.9549 22.1453L21.8097 19.7178C26.0508 17.5973 28.1714 16.537 28.1714 14.858C28.1714 13.1789 26.0508 12.1186 21.8097 9.99807L16.9549 7.57065C13.5319 5.85915 11.8204 5.0034 10.8282 5.26608C9.88426 5.51597 9.14705 6.25318 8.89716 7.19708C8.63448 8.1893 9.49023 9.9008 11.2017 13.3238C11.4138 13.748 11.8475 14.0302 12.3218 14.0324L20.0718 14.0685C20.5079 14.0705 20.8597 14.4256 20.8576 14.8616C20.8556 15.2976 20.5005 15.6494 20.0645 15.6474L12.4396 15.6119C11.9168 15.6095 11.4355 15.9246 11.2017 16.3921C9.49024 19.8151 8.63448 21.5266 8.89716 22.5188C9.14705 23.4627 9.88425 24.1999 10.8282 24.4498C11.8204 24.7125 13.5319 23.8568 16.9549 22.1453Z" fill="#83074E"/>
</svg>
