<svg width="103" height="24" viewBox="0 0 103 24" fill="none" xmlns="http://www.w3.org/2000/svg">
<path fill-rule="evenodd" clip-rule="evenodd" d="M10.2755 2.25503C10.359 2.24997 10.4474 2.24998 10.5609 2.25H13.4395C13.553 2.24998 13.6413 2.24997 13.7249 2.25503C14.7853 2.31926 15.7139 2.98855 16.1102 3.97426C16.1414 4.05194 16.1694 4.13581 16.2052 4.24347L16.2083 4.25254C16.2916 4.47692 16.4829 4.73205 16.7506 4.93589C16.7804 4.95858 16.8104 4.98 16.8403 5.00017C18.9942 5.00268 20.1185 5.04245 20.8934 5.67298C21.0524 5.80233 21.1977 5.94763 21.327 6.10659C22 6.9337 22 8.15877 22 10.6089C22 11.2307 22 11.5415 21.8492 11.784C21.8199 11.8312 21.7866 11.8759 21.7498 11.9176C21.5609 12.1317 21.2631 12.2211 20.6676 12.3997L16 13.8V13C16 11.8954 15.1046 11 14 11H10C8.89543 11 8 11.8954 8 13V13.8L3.3324 12.3997C2.7369 12.2211 2.43915 12.1317 2.25021 11.9176C2.21341 11.8759 2.18015 11.8312 2.15078 11.784C2 11.5415 2 11.2307 2 10.6089C2 8.15877 2 6.9337 2.67298 6.10659C2.80233 5.94763 2.94763 5.80233 3.10659 5.67298C3.88153 5.04245 5.00582 5.00268 7.15973 5.00017C7.18968 4.97999 7.21961 4.95855 7.24943 4.93586C7.51728 4.73199 7.70854 4.47684 7.79189 4.25251C7.82984 4.13863 7.85823 4.05369 7.89017 3.97425C8.28643 2.98855 9.21502 2.31926 10.2755 2.25503ZM14.8187 4.81811C14.8429 4.87968 14.8695 4.94034 14.8984 5H9.10172C9.13059 4.94044 9.1572 4.87988 9.18135 4.81842L9.1829 4.81492L9.18707 4.80502L9.19194 4.7929L9.19652 4.78093L9.20016 4.77098L9.20194 4.76597L9.20618 4.75373L9.21001 4.74244L9.2121 4.73617L9.21483 4.72783L9.21707 4.72079L9.21886 4.71502C9.25769 4.59872 9.27037 4.56246 9.28191 4.53375C9.46203 4.08571 9.88412 3.78148 10.3661 3.75229C10.3984 3.75034 10.4379 3.75 10.5813 3.75H13.419C13.5624 3.75 13.602 3.75034 13.6342 3.75229C14.1162 3.78148 14.5383 4.08571 14.7185 4.53375C14.7298 4.56204 14.7419 4.59698 14.7813 4.71499L14.783 4.72071L14.7853 4.72778L14.788 4.73614L14.7901 4.74239L14.7939 4.75366L14.7982 4.76588L14.7999 4.77089L14.8036 4.78081L14.8081 4.79271L14.813 4.80471L14.8171 4.81449L14.8187 4.81811ZM14 12.5H10C9.72386 12.5 9.5 12.7239 9.5 13V15.1615C9.5 15.3659 9.62448 15.5498 9.8143 15.6257L10.5144 15.9058C11.4681 16.2872 12.5319 16.2872 13.4856 15.9058L14.1857 15.6257C14.3755 15.5498 14.5 15.3659 14.5 15.1615V13C14.5 12.7239 14.2761 12.5 14 12.5ZM8.01076 15.3691L3.00586 13.8677C3.03595 16.9822 3.21789 19.8505 4.31792 20.8283C5.63593 21.9998 7.75726 21.9998 11.9999 21.9998C16.2425 21.9998 18.3639 21.9998 19.6819 20.8283C20.7819 19.8505 20.9638 16.9822 20.9939 13.8677L15.9892 15.3691C15.913 16.1018 15.4372 16.7407 14.7428 17.0184L14.0426 17.2985C12.7314 17.823 11.2686 17.823 9.95735 17.2985L9.25722 17.0184C8.5628 16.7407 8.08702 16.1018 8.01076 15.3691Z" fill="#83074E"/>
<path d="M38.96 18.112C38.1813 18.112 37.4773 17.9787 36.848 17.712C36.2293 17.4453 35.7387 17.0613 35.376 16.56C35.0133 16.0587 34.8267 15.4667 34.816 14.784H37.216C37.248 15.2427 37.408 15.6053 37.696 15.872C37.9947 16.1387 38.4 16.272 38.912 16.272C39.4347 16.272 39.8453 16.1493 40.144 15.904C40.4427 15.648 40.592 15.3173 40.592 14.912C40.592 14.5813 40.4907 14.3093 40.288 14.096C40.0853 13.8827 39.8293 13.7173 39.52 13.6C39.2213 13.472 38.8053 13.3333 38.272 13.184C37.5467 12.9707 36.9547 12.7627 36.496 12.56C36.048 12.3467 35.6587 12.032 35.328 11.616C35.008 11.1893 34.848 10.624 34.848 9.92C34.848 9.25867 35.0133 8.68267 35.344 8.192C35.6747 7.70133 36.1387 7.328 36.736 7.072C37.3333 6.80533 38.016 6.672 38.784 6.672C39.936 6.672 40.8693 6.95467 41.584 7.52C42.3093 8.07467 42.7093 8.85333 42.784 9.856H40.32C40.2987 9.472 40.1333 9.15733 39.824 8.912C39.5253 8.656 39.1253 8.528 38.624 8.528C38.1867 8.528 37.8347 8.64 37.568 8.864C37.312 9.088 37.184 9.41333 37.184 9.84C37.184 10.1387 37.28 10.3893 37.472 10.592C37.6747 10.784 37.92 10.944 38.208 11.072C38.5067 11.1893 38.9227 11.328 39.456 11.488C40.1813 11.7013 40.7733 11.9147 41.232 12.128C41.6907 12.3413 42.0853 12.6613 42.416 13.088C42.7467 13.5147 42.912 14.0747 42.912 14.768C42.912 15.3653 42.7573 15.92 42.448 16.432C42.1387 16.944 41.6853 17.3547 41.088 17.664C40.4907 17.9627 39.7813 18.112 38.96 18.112ZM53.094 13.376C53.094 13.696 53.0727 13.984 53.03 14.24H46.55C46.6033 14.88 46.8273 15.3813 47.222 15.744C47.6167 16.1067 48.102 16.288 48.678 16.288C49.51 16.288 50.102 15.9307 50.454 15.216H52.87C52.614 16.0693 52.1233 16.7733 51.398 17.328C50.6727 17.872 49.782 18.144 48.726 18.144C47.8727 18.144 47.1047 17.9573 46.422 17.584C45.75 17.2 45.222 16.6613 44.838 15.968C44.4647 15.2747 44.278 14.4747 44.278 13.568C44.278 12.6507 44.4647 11.8453 44.838 11.152C45.2113 10.4587 45.734 9.92533 46.406 9.552C47.078 9.17867 47.8513 8.992 48.726 8.992C49.5687 8.992 50.3207 9.17333 50.982 9.536C51.654 9.89867 52.1713 10.416 52.534 11.088C52.9073 11.7493 53.094 12.512 53.094 13.376ZM50.774 12.736C50.7633 12.16 50.5553 11.7013 50.15 11.36C49.7447 11.008 49.2487 10.832 48.662 10.832C48.1073 10.832 47.638 11.0027 47.254 11.344C46.8807 11.6747 46.6513 12.1387 46.566 12.736H50.774ZM56.969 10.512C57.257 10.0427 57.6303 9.67467 58.089 9.408C58.5583 9.14133 59.0917 9.008 59.689 9.008V11.36H59.097C58.393 11.36 57.8597 11.5253 57.497 11.856C57.145 12.1867 56.969 12.7627 56.969 13.584V18H54.729V9.136H56.969V10.512ZM64.8938 15.936L67.1338 9.136H69.5178L66.2378 18H63.5178L60.2538 9.136H62.6538L64.8938 15.936ZM71.9119 8.08C71.5172 8.08 71.1865 7.95733 70.9199 7.712C70.6639 7.456 70.5359 7.14133 70.5359 6.768C70.5359 6.39467 70.6639 6.08533 70.9199 5.84C71.1865 5.584 71.5172 5.456 71.9119 5.456C72.3065 5.456 72.6319 5.584 72.8879 5.84C73.1545 6.08533 73.2879 6.39467 73.2879 6.768C73.2879 7.14133 73.1545 7.456 72.8879 7.712C72.6319 7.95733 72.3065 8.08 71.9119 8.08ZM73.0159 9.136V18H70.7759V9.136H73.0159ZM74.653 13.568C74.653 12.6507 74.8397 11.8507 75.213 11.168C75.5863 10.4747 76.1037 9.94133 76.765 9.568C77.4263 9.184 78.1837 8.992 79.037 8.992C80.1357 8.992 81.0423 9.26933 81.757 9.824C82.4823 10.368 82.9677 11.136 83.213 12.128H80.797C80.669 11.744 80.4503 11.4453 80.141 11.232C79.8423 11.008 79.469 10.896 79.021 10.896C78.381 10.896 77.8743 11.1307 77.501 11.6C77.1277 12.0587 76.941 12.7147 76.941 13.568C76.941 14.4107 77.1277 15.0667 77.501 15.536C77.8743 15.9947 78.381 16.224 79.021 16.224C79.9277 16.224 80.5197 15.8187 80.797 15.008H83.213C82.9677 15.968 82.4823 16.7307 81.757 17.296C81.0317 17.8613 80.125 18.144 79.037 18.144C78.1837 18.144 77.4263 17.9573 76.765 17.584C76.1037 17.2 75.5863 16.6667 75.213 15.984C74.8397 15.2907 74.653 14.4853 74.653 13.568ZM93.094 13.376C93.094 13.696 93.0727 13.984 93.03 14.24H86.55C86.6033 14.88 86.8273 15.3813 87.222 15.744C87.6167 16.1067 88.102 16.288 88.678 16.288C89.51 16.288 90.102 15.9307 90.454 15.216H92.87C92.614 16.0693 92.1233 16.7733 91.398 17.328C90.6727 17.872 89.782 18.144 88.726 18.144C87.8727 18.144 87.1047 17.9573 86.422 17.584C85.75 17.2 85.222 16.6613 84.838 15.968C84.4647 15.2747 84.278 14.4747 84.278 13.568C84.278 12.6507 84.4647 11.8453 84.838 11.152C85.2113 10.4587 85.734 9.92533 86.406 9.552C87.078 9.17867 87.8513 8.992 88.726 8.992C89.5687 8.992 90.3207 9.17333 90.982 9.536C91.654 9.89867 92.1713 10.416 92.534 11.088C92.9073 11.7493 93.094 12.512 93.094 13.376ZM90.774 12.736C90.7633 12.16 90.5553 11.7013 90.15 11.36C89.7447 11.008 89.2487 10.832 88.662 10.832C88.1073 10.832 87.638 11.0027 87.254 11.344C86.8807 11.6747 86.6513 12.1387 86.566 12.736H90.774ZM98.121 18.144C97.3957 18.144 96.745 18.016 96.169 17.76C95.593 17.4933 95.1343 17.136 94.793 16.688C94.4623 16.24 94.281 15.744 94.249 15.2H96.505C96.5477 15.5413 96.713 15.824 97.001 16.048C97.2997 16.272 97.6677 16.384 98.105 16.384C98.5317 16.384 98.8623 16.2987 99.097 16.128C99.3423 15.9573 99.465 15.7387 99.465 15.472C99.465 15.184 99.3157 14.9707 99.017 14.832C98.729 14.6827 98.265 14.5227 97.625 14.352C96.9637 14.192 96.4197 14.0267 95.993 13.856C95.577 13.6853 95.2143 13.424 94.905 13.072C94.6063 12.72 94.457 12.2453 94.457 11.648C94.457 11.1573 94.5957 10.7093 94.873 10.304C95.161 9.89867 95.5663 9.57867 96.089 9.344C96.6223 9.10933 97.2463 8.992 97.961 8.992C99.017 8.992 99.8597 9.25867 100.489 9.792C101.118 10.3147 101.465 11.024 101.529 11.92H99.385C99.353 11.568 99.2037 11.2907 98.937 11.088C98.681 10.8747 98.3343 10.768 97.897 10.768C97.4917 10.768 97.177 10.8427 96.953 10.992C96.7397 11.1413 96.633 11.3493 96.633 11.616C96.633 11.9147 96.7823 12.144 97.081 12.304C97.3797 12.4533 97.8437 12.608 98.473 12.768C99.113 12.928 99.641 13.0933 100.057 13.264C100.473 13.4347 100.83 13.7013 101.129 14.064C101.438 14.416 101.598 14.8853 101.609 15.472C101.609 15.984 101.465 16.4427 101.177 16.848C100.9 17.2533 100.494 17.5733 99.961 17.808C99.4383 18.032 98.825 18.144 98.121 18.144Z" fill="#83074E"/>
</svg>
