<svg width="18" height="18" viewBox="0 0 18 18" fill="none" xmlns="http://www.w3.org/2000/svg">
<path fill-rule="evenodd" clip-rule="evenodd" d="M10.4848 3.7451C10.4848 2.22902 11.7195 1 13.2424 1C14.7654 1 16 2.22902 16 3.7451C16 5.26117 14.7654 6.4902 13.2424 6.4902C12.4734 6.4902 11.7784 6.17667 11.2788 5.67227L7.46137 8.27139C7.49667 8.44675 7.51515 8.6279 7.51515 8.81297C7.51515 9.17946 7.44274 9.52977 7.31143 9.84995L11.4972 12.6001C11.9722 12.2132 12.5801 11.9804 13.2424 11.9804C14.7654 11.9804 16 13.2094 16 14.7255C16 16.2416 14.7654 17.4706 13.2424 17.4706C11.7195 17.4706 10.4848 16.2416 10.4848 14.7255C10.4848 14.3284 10.5698 13.9504 10.7226 13.6092L6.57064 10.8813C6.08632 11.3022 5.45191 11.5581 4.75758 11.5581C3.23461 11.5581 2 10.329 2 8.81297C2 7.2969 3.23461 6.06787 4.75758 6.06787C5.63333 6.06787 6.4129 6.47421 6.91766 7.10662L10.6174 4.58764C10.5313 4.32178 10.4848 4.03849 10.4848 3.7451Z" fill="white"/>
</svg>
