<svg width="40" height="41" viewBox="0 0 40 41" fill="none" xmlns="http://www.w3.org/2000/svg">
<rect y="0.5" width="40" height="40" rx="20" fill="#83074E"/>
<path fill-rule="evenodd" clip-rule="evenodd" d="M20.8054 14.1037C20.1726 14.4111 19.3707 14.9381 18.2281 15.6915L18.0341 15.8194C18.0193 15.8291 18.0048 15.8387 17.9904 15.8482C17.6536 16.0704 17.4203 16.2243 17.1646 16.3371C16.9127 16.4483 16.648 16.5277 16.3764 16.5736C16.1009 16.6201 15.8215 16.62 15.4179 16.62C15.4007 16.62 15.3833 16.62 15.3656 16.62C14.0866 16.62 13.6549 16.6344 13.2878 16.8042C12.9331 16.9683 12.5554 17.3237 12.37 17.6678C12.1766 18.0267 12.1411 18.3945 12.0728 19.5145C12.0541 19.8219 12.0433 20.1165 12.0433 20.3852C12.0433 20.6538 12.0541 20.9485 12.0728 21.2559C12.1411 22.3758 12.1766 22.7437 12.37 23.1026C12.5554 23.4466 12.9331 23.8021 13.2878 23.9662C13.6549 24.136 14.0866 24.1504 15.3656 24.1504C15.3833 24.1504 15.4007 24.1504 15.4179 24.1504C15.8215 24.1503 16.1009 24.1503 16.3764 24.1968C16.648 24.2426 16.9127 24.3221 17.1646 24.4332C17.4203 24.5461 17.6536 24.6999 17.9904 24.9221C18.0048 24.9316 18.0193 24.9412 18.0341 24.951L18.2281 25.0788C19.3707 25.8323 20.1726 26.3593 20.8054 26.6667C21.4364 26.9732 21.7519 26.9855 21.9727 26.9102C22.0944 26.8687 22.2135 26.808 22.3187 26.7341C22.5107 26.5992 22.6857 26.3382 22.8087 25.6549C22.9323 24.9684 22.9778 24.0187 23.0408 22.6625C23.0869 21.6707 23.1175 20.8386 23.1175 20.3852C23.1175 19.9318 23.0869 19.0997 23.0408 18.1078C22.9778 16.7517 22.9323 15.802 22.8087 15.1155C22.6857 14.4321 22.5107 14.1712 22.3187 14.0363C22.2135 13.9623 22.0944 13.9017 21.9727 13.8602C21.7519 13.7848 21.4364 13.7971 20.8054 14.1037ZM20.2247 12.9083C20.9565 12.5528 21.677 12.3551 22.4019 12.6025C22.6427 12.6847 22.8746 12.8027 23.0828 12.949C23.7084 13.3886 23.9731 14.0832 24.1166 14.8801C24.2576 15.6635 24.3059 16.7018 24.366 17.9952L24.3683 18.0461C24.4142 19.0339 24.4464 19.8961 24.4464 20.3852C24.4464 20.8742 24.4142 21.7364 24.3683 22.7242L24.366 22.7752C24.3059 24.0686 24.2576 25.1068 24.1166 25.8903C23.9731 26.6872 23.7084 27.3817 23.0828 27.8213C22.8746 27.9677 22.6427 28.0857 22.4019 28.1679C21.677 28.4152 20.9565 28.2175 20.2247 27.862C19.5039 27.5119 18.6294 26.9353 17.539 26.2163L17.3026 26.0604C16.9058 25.7988 16.7693 25.7113 16.6281 25.649C16.4769 25.5823 16.3181 25.5346 16.1552 25.5071C16.003 25.4814 15.8409 25.4793 15.3656 25.4793C15.3174 25.4793 15.2699 25.4793 15.2229 25.4794C14.1448 25.4799 13.3957 25.4803 12.7298 25.1722C12.1143 24.8874 11.5218 24.33 11.2001 23.7329C10.8523 23.0873 10.8114 22.4122 10.7534 21.4523C10.7511 21.4142 10.7488 21.3757 10.7464 21.3367C10.7265 21.0104 10.7144 20.6878 10.7144 20.3852C10.7144 20.0826 10.7265 19.7599 10.7464 19.4337C10.7488 19.3947 10.7511 19.3562 10.7534 19.3181C10.8114 18.3581 10.8523 17.683 11.2001 17.0374C11.5218 16.4404 12.1143 15.8829 12.7298 15.5981C13.3957 15.29 14.1448 15.2904 15.2229 15.291C15.2699 15.291 15.3174 15.291 15.3656 15.291C15.8409 15.291 16.003 15.2889 16.1552 15.2632C16.3181 15.2357 16.4769 15.188 16.6281 15.1213C16.7693 15.059 16.9058 14.9716 17.3026 14.7099L17.539 14.5541C18.6294 13.8351 19.5039 13.2585 20.2247 12.9083ZM27.3432 14.5593C27.6252 14.3244 28.0441 14.3625 28.2791 14.6444L27.7686 15.0697C28.2791 14.6444 28.2791 14.6444 28.2791 14.6444L28.2801 14.6456L28.2812 14.647L28.2838 14.6502L28.2905 14.6584C28.2955 14.6647 28.3018 14.6726 28.3092 14.6821C28.324 14.7013 28.3433 14.7269 28.3664 14.7593C28.4127 14.8241 28.4743 14.9157 28.546 15.0352C28.6894 15.2742 28.8727 15.6243 29.0532 16.0937C29.4149 17.034 29.762 18.4438 29.762 20.3854C29.762 22.327 29.4149 23.7367 29.0532 24.677C28.8727 25.1464 28.6894 25.4965 28.546 25.7355C28.4743 25.855 28.4127 25.9466 28.3664 26.0114C28.3433 26.0438 28.324 26.0695 28.3092 26.0886C28.3048 26.0943 28.3008 26.0994 28.2972 26.104C28.2948 26.107 28.2925 26.1098 28.2905 26.1124L28.2838 26.1206L28.2812 26.1238L28.2801 26.1251C28.2801 26.1251 28.2791 26.1264 27.7686 25.701L28.2791 26.1264C28.0441 26.4083 27.6252 26.4464 27.3432 26.2114C27.0627 25.9776 27.0236 25.5615 27.2548 25.2797M27.2548 25.2797C27.2548 25.2797 27.2564 25.2777 27.2579 25.2757C27.2626 25.2697 27.2718 25.2575 27.285 25.239C27.3114 25.202 27.3536 25.14 27.4065 25.0518C27.5122 24.8756 27.6612 24.5944 27.8129 24.2C28.1157 23.4127 28.4331 22.1647 28.4331 20.3854C28.4331 18.606 28.1157 17.358 27.8129 16.5707C27.6612 16.1763 27.5122 15.8952 27.4065 15.7189C27.3536 15.6307 27.3114 15.5687 27.285 15.5317C27.2718 15.5133 27.2626 15.5011 27.2579 15.495C27.2564 15.493 27.2548 15.491 27.2548 15.491L27.2579 15.495L27.2565 15.4931L27.2548 15.491C27.0236 15.2092 27.0627 14.7931 27.3432 14.5593M25.6741 17.1467C25.9948 16.9685 26.3994 17.0841 26.5776 17.4049L26.0212 17.714C26.5776 17.4049 26.5776 17.4049 26.5776 17.4049L26.5782 17.406L26.5789 17.4073L26.5804 17.41L26.5838 17.4163L26.5923 17.4325C26.5988 17.445 26.6066 17.4607 26.6157 17.4798C26.6338 17.5179 26.6568 17.5693 26.6829 17.6344C26.735 17.7648 26.7993 17.9499 26.8619 18.1938C26.987 18.6819 27.1042 19.4019 27.1042 20.3854C27.1042 21.3689 26.987 22.0889 26.8619 22.577C26.7993 22.8208 26.735 23.0059 26.6829 23.1363C26.6568 23.2014 26.6338 23.2528 26.6157 23.2909C26.6066 23.31 26.5988 23.3257 26.5923 23.3382L26.5838 23.3545L26.5804 23.3608L26.5789 23.3635L26.5782 23.3647C26.5782 23.3647 26.5776 23.3659 26.0212 23.0568L26.5776 23.3659C26.3994 23.6866 25.9948 23.8022 25.6741 23.624C25.356 23.4473 25.2397 23.0481 25.4114 22.7287L25.4159 22.7196C25.4219 22.7069 25.4336 22.6814 25.449 22.6427C25.4799 22.5655 25.5264 22.435 25.5746 22.2469C25.6709 21.8712 25.7753 21.2623 25.7753 20.3854C25.7753 19.5084 25.6709 18.8995 25.5746 18.5238C25.5264 18.3358 25.4799 18.2052 25.449 18.128C25.4336 18.0893 25.4219 18.0639 25.4159 18.0511L25.4114 18.042C25.2397 17.7226 25.356 17.3234 25.6741 17.1467Z" fill="#F9F2F6"/>
</svg>
