<svg width="26" height="26" viewBox="0 0 26 26" fill="none" xmlns="http://www.w3.org/2000/svg">
    <path d="M25.316 4.05129L13.3161 0.0513237C13.1109 -0.0171079 12.8889 -0.0171079 12.6836 0.0513237L0.683744 4.05129C0.484627 4.11767 0.311444 4.24501 0.188728 4.41529C0.0660115 4.58557 -1.55527e-05 4.79014 2.74792e-09 5.00003V14.9999C2.74793e-09 15.2652 0.105356 15.5195 0.292891 15.707C0.480425 15.8946 0.734777 15.9999 0.999991 15.9999C1.26521 15.9999 1.51956 15.8946 1.70709 15.707C1.89463 15.5195 1.99998 15.2652 1.99998 14.9999V6.38752L6.1987 7.78626C5.08315 9.5885 4.72842 11.7598 5.21237 13.8233C5.69633 15.8869 6.97943 17.6741 8.77992 18.7924C6.52994 19.6749 4.58496 21.2711 3.16247 23.4536C3.08849 23.5636 3.03711 23.6871 3.0113 23.8171C2.98549 23.9471 2.98578 24.0809 3.01215 24.2108C3.03852 24.3407 3.09044 24.464 3.16489 24.5737C3.23935 24.6833 3.33485 24.777 3.44585 24.8494C3.55685 24.9218 3.68113 24.9714 3.81148 24.9954C3.94182 25.0193 4.07562 25.0171 4.20511 24.9889C4.33459 24.9607 4.45718 24.907 4.56573 24.831C4.67429 24.755 4.76665 24.6581 4.83746 24.5461C6.72119 21.6561 9.69617 19.9999 12.9999 19.9999C16.3036 19.9999 19.2786 21.6561 21.1623 24.5461C21.309 24.7641 21.5356 24.9156 21.793 24.9679C22.0505 25.0202 22.3182 24.969 22.5383 24.8255C22.7584 24.6819 22.9131 24.4576 22.969 24.2008C23.025 23.9441 22.9777 23.6757 22.8373 23.4536C21.4148 21.2711 19.4623 19.6749 17.2199 18.7924C19.0186 17.6741 20.3005 15.8881 20.7844 13.8261C21.2683 11.764 20.9146 9.59422 19.8011 7.79251L25.316 5.95502C25.5152 5.88868 25.6884 5.76135 25.8112 5.59107C25.9339 5.42079 26 5.2162 26 5.00628C26 4.79636 25.9339 4.59177 25.8112 4.42149C25.6884 4.25121 25.5152 4.12388 25.316 4.05754V4.05129ZM18.9998 12C19.0001 12.9485 18.7755 13.8836 18.3444 14.7286C17.9133 15.5735 17.288 16.3042 16.5198 16.8607C15.7516 17.4171 14.8624 17.7836 13.9252 17.9298C12.988 18.0761 12.0294 17.9981 11.1282 17.7022C10.227 17.4063 9.40876 16.901 8.74066 16.2276C8.07257 15.5542 7.57364 14.7321 7.28482 13.8285C6.99601 12.925 6.92553 11.9659 7.07917 11.0298C7.23281 10.0938 7.60619 9.20754 8.16868 8.44375L12.6836 9.94374C12.8889 10.0122 13.1109 10.0122 13.3161 9.94374L17.8311 8.44375C18.5907 9.47378 19.0004 10.7201 18.9998 12Z" fill="#83074E"/>
</svg>
