<svg width="14" height="15" viewBox="0 0 14 15" fill="none" xmlns="http://www.w3.org/2000/svg">
<path d="M11.8241 9.98797L12.2357 7.60811C12.3385 7.0137 11.8814 6.47003 11.2788 6.47003H8.2565C7.95695 6.47003 7.72885 6.20116 7.77734 5.90524L8.1639 3.54591C8.2267 3.16262 8.20876 2.77041 8.11124 2.39447C8.03046 2.08304 7.79017 1.83297 7.47417 1.73145L7.38961 1.70429C7.19863 1.64294 6.99018 1.65721 6.81013 1.74398C6.61194 1.83948 6.46695 2.01368 6.41321 2.22085L6.13571 3.2906C6.04742 3.63097 5.9188 3.95951 5.75298 4.26994C5.51069 4.72352 5.13609 5.08652 4.74669 5.42207L3.90743 6.14528C3.67079 6.34919 3.54652 6.65457 3.57345 6.96598L4.04721 12.445C4.09067 12.9476 4.51084 13.3334 5.01471 13.3334H7.72641C9.75716 13.3334 11.4903 11.9185 11.8241 9.98797Z" fill="#83074E"/>
<path fill-rule="evenodd" clip-rule="evenodd" d="M1.73114 6.03288C1.96521 6.02278 2.16569 6.19887 2.18587 6.43229L2.75264 12.9869C2.78905 13.408 2.4574 13.7709 2.03391 13.7709C1.63502 13.7709 1.3125 13.4473 1.3125 13.0491V6.46998C1.3125 6.23569 1.49707 6.04299 1.73114 6.03288Z" fill="#83074E"/>
</svg>
