<svg width="15" height="15" viewBox="0 0 15 15" fill="none" xmlns="http://www.w3.org/2000/svg">
<path fill-rule="evenodd" clip-rule="evenodd" d="M7.75562 2.12082C7.671 2.09364 7.57847 2.10023 7.49987 2.1381C7.41382 2.17957 7.35694 2.25195 7.33651 2.3307L7.05901 3.40045C6.96197 3.77456 6.82068 4.1354 6.6387 4.47607C6.35617 5.00497 5.92869 5.41175 5.53211 5.75349L4.69284 6.47671C4.56277 6.58879 4.49432 6.75681 4.50914 6.92829L4.98291 12.4074C5.00684 12.6842 5.23809 12.8959 5.51454 12.8959H8.22623C10.0557 12.8959 11.5972 11.6229 11.8928 9.91342L12.3044 7.53356C12.361 7.20602 12.1092 6.90753 11.7786 6.90753H8.75632C8.18633 6.90753 7.75339 6.39616 7.84542 5.8345L8.23198 3.47517C8.28493 3.15199 8.2698 2.8213 8.18758 2.50432C8.14585 2.34347 8.01893 2.20541 7.84019 2.14799L7.75562 2.12082L7.88943 1.70429L7.75562 2.12082ZM7.12003 1.34985C7.40154 1.2142 7.7259 1.19223 8.02324 1.28775L8.10781 1.31492L7.974 1.73145L8.10781 1.31492C8.56106 1.46053 8.9147 1.82261 9.03455 2.28462C9.14737 2.71953 9.16811 3.17324 9.09546 3.61665L8.7089 5.97597C8.70396 6.00617 8.72722 6.03253 8.75632 6.03253H11.7786C12.6532 6.03253 13.3156 6.82138 13.1666 7.68266L12.755 10.0625C12.383 12.214 10.4582 13.7709 8.22623 13.7709H5.51454C4.78324 13.7709 4.17414 13.2111 4.11116 12.4827L3.6374 7.00367C3.59837 6.55233 3.77846 6.10959 4.12165 5.81386L4.96092 5.09065C5.34313 4.76129 5.66486 4.44205 5.86691 4.0638C6.01658 3.78362 6.13251 3.48737 6.21205 3.18074L6.48954 2.111C6.5766 1.7754 6.80971 1.49939 7.12003 1.34985ZM2.23114 6.03294C2.46521 6.02284 2.66569 6.19892 2.68587 6.43234L3.25264 12.987C3.28905 13.408 2.9574 13.7709 2.53391 13.7709C2.13502 13.7709 1.8125 13.4473 1.8125 13.0492V6.47003C1.8125 6.23574 1.99707 6.04304 2.23114 6.03294Z" fill="#433F41"/>
</svg>
