<svg width="14" height="14" viewBox="0 0 14 14" fill="none" xmlns="http://www.w3.org/2000/svg">
<circle cx="7.5" cy="7.5" r="3.5" fill="white"/>
<path fill-rule="evenodd" clip-rule="evenodd" d="M5.59541 1.86666C5.45335 1.98772 5.38232 2.04826 5.30646 2.0991C5.13256 2.21565 4.93727 2.29655 4.73189 2.33709C4.6423 2.35478 4.54927 2.3622 4.36322 2.37705C3.89574 2.41436 3.66201 2.43301 3.467 2.50189C3.01597 2.6612 2.6612 3.01597 2.50189 3.467C2.43301 3.66201 2.41436 3.89574 2.37705 4.36322C2.3622 4.54927 2.35478 4.6423 2.33709 4.73189C2.29655 4.93727 2.21565 5.13256 2.0991 5.30646C2.04826 5.38232 1.98773 5.45335 1.86666 5.59541C1.56249 5.95233 1.4104 6.13081 1.32121 6.3174C1.11493 6.74898 1.11493 7.2507 1.32121 7.68227C1.4104 7.86887 1.56249 8.04734 1.86666 8.40427C1.98771 8.54631 2.04826 8.61736 2.0991 8.69322C2.21565 8.86711 2.29655 9.0624 2.33709 9.26778C2.35478 9.35737 2.3622 9.4504 2.37705 9.63646C2.41436 10.1039 2.43301 10.3377 2.50189 10.5327C2.6612 10.9837 3.01597 11.3385 3.467 11.4978C3.662 11.5667 3.89574 11.5853 4.36322 11.6226C4.54927 11.6375 4.6423 11.6449 4.7319 11.6626C4.93727 11.7031 5.13256 11.784 5.30646 11.9006C5.38232 11.9514 5.45335 12.0119 5.59541 12.133C5.95234 12.4372 6.13081 12.5893 6.3174 12.6785C6.74898 12.8847 7.2507 12.8847 7.68227 12.6785C7.86887 12.5893 8.04734 12.4372 8.40427 12.133C8.54633 12.0119 8.61736 11.9514 8.69322 11.9006C8.86711 11.784 9.0624 11.7031 9.26778 11.6626C9.35737 11.6449 9.4504 11.6375 9.63646 11.6226C10.1039 11.5853 10.3377 11.5667 10.5327 11.4978C10.9837 11.3385 11.3385 10.9837 11.4978 10.5327C11.5667 10.3377 11.5853 10.1039 11.6226 9.63646C11.6375 9.4504 11.6449 9.35737 11.6626 9.26778C11.7031 9.0624 11.784 8.86711 11.9006 8.69322C11.9514 8.61736 12.0119 8.54633 12.133 8.40427C12.4372 8.04734 12.5893 7.86887 12.6785 7.68227C12.8847 7.2507 12.8847 6.74898 12.6785 6.3174C12.5893 6.13081 12.4372 5.95234 12.133 5.59541C12.0119 5.45335 11.9514 5.38232 11.9006 5.30646C11.784 5.13256 11.7031 4.93727 11.6626 4.7319C11.6449 4.6423 11.6375 4.54927 11.6226 4.36322C11.5853 3.89574 11.5667 3.662 11.4978 3.467C11.3385 3.01597 10.9837 2.6612 10.5327 2.50189C10.3377 2.43301 10.1039 2.41436 9.63646 2.37705C9.4504 2.3622 9.35737 2.35478 9.26778 2.33709C9.0624 2.29655 8.86711 2.21565 8.69322 2.0991C8.61736 2.04826 8.54633 1.98773 8.40427 1.86666C8.04734 1.56249 7.86887 1.4104 7.68227 1.32121C7.2507 1.11493 6.74898 1.11493 6.3174 1.32121C6.13081 1.4104 5.95233 1.56249 5.59541 1.86666ZM9.55104 5.75333C9.73644 5.56793 9.73644 5.26733 9.55104 5.08193C9.36563 4.89653 9.06504 4.89653 8.87964 5.08193L6.05033 7.91124L5.12002 6.98094C4.93462 6.79554 4.63402 6.79554 4.44862 6.98094C4.26322 7.16634 4.26322 7.46694 4.44862 7.65234L5.71463 8.91834C5.90003 9.10375 6.20062 9.10375 6.38603 8.91834L9.55104 5.75333Z" fill="#0A8B0E"/>
</svg>
