<svg width="40" height="41" viewBox="0 0 40 41" fill="none" xmlns="http://www.w3.org/2000/svg">
<rect y="0.5" width="40" height="40" rx="20" fill="#F9F2F6"/>
<g clip-path="url(#clip0_3489_19568)">
<path d="M24.5835 18.2082L25.187 17.9064C26.9707 17.0146 27.8626 16.5686 28.5147 16.9717C29.1668 17.3747 29.1668 18.3718 29.1668 20.3661V20.6336C29.1668 22.6279 29.1668 23.625 28.5147 24.028C27.8626 24.4311 26.9707 23.9851 25.187 23.0933L24.5835 22.7915V18.2082Z" stroke="#140F12" stroke-width="1.1"/>
<path d="M21.4308 16.3187C21.9677 16.8557 21.9677 17.7263 21.4308 18.2633C20.8938 18.8003 20.0232 18.8003 19.4862 18.2633C18.9493 17.7263 18.9493 16.8557 19.4862 16.3187C20.0232 15.7818 20.8938 15.7818 21.4308 16.3187Z" stroke="#140F12" stroke-width="1.1"/>
<path d="M10.8335 20.041C10.8335 17.0275 10.8335 15.5207 11.6658 14.5066C11.8182 14.3209 11.9884 14.1507 12.1741 13.9983C13.1882 13.166 14.695 13.166 17.7085 13.166C20.722 13.166 22.2288 13.166 23.2429 13.9983C23.4286 14.1507 23.5988 14.3209 23.7512 14.5066C24.5835 15.5207 24.5835 17.0275 24.5835 20.041V20.9577C24.5835 23.9712 24.5835 25.478 23.7512 26.4921C23.5988 26.6778 23.4286 26.848 23.2429 27.0004C22.2288 27.8327 20.722 27.8327 17.7085 27.8327C14.695 27.8327 13.1882 27.8327 12.1741 27.0004C11.9884 26.848 11.8182 26.6778 11.6658 26.4921C10.8335 25.478 10.8335 23.9712 10.8335 20.9577V20.041Z" stroke="#140F12" stroke-width="1.1"/>
</g>
<defs>
<clipPath id="clip0_3489_19568">
<rect width="22" height="22" fill="white" transform="matrix(1 0 0 -1 9 31.5)"/>
</clipPath>
</defs>
</svg>
