<svg width="18" height="15" viewBox="0 0 18 15" fill="none" xmlns="http://www.w3.org/2000/svg">
<path fill-rule="evenodd" clip-rule="evenodd" d="M6.87599 0.208985H6.95751C8.29273 0.208974 9.35053 0.208966 10.1874 0.307885C11.0465 0.409438 11.7538 0.622637 12.3446 1.10749C12.545 1.27197 12.7288 1.45575 12.8933 1.65618C13.3781 2.24697 13.5913 2.95422 13.6929 3.81336C13.7157 4.00647 13.7332 4.21135 13.7467 4.42868C14.4017 4.10225 14.9568 3.83403 15.4194 3.68266C15.9623 3.50502 16.5381 3.43333 17.0692 3.76156C17.6002 4.08978 17.7936 4.63687 17.8775 5.20187C17.9585 5.74696 17.9584 6.46501 17.9584 7.32768V7.67362C17.9584 8.5363 17.9585 9.25434 17.8775 9.79943C17.7936 10.3644 17.6002 10.9115 17.0692 11.2397C16.5381 11.568 15.9623 11.4963 15.4194 11.3186C14.9568 11.1673 14.4017 10.8991 13.7467 10.5726C13.7332 10.79 13.7157 10.9948 13.6929 11.1879C13.5913 12.0471 13.3781 12.7543 12.8933 13.3451C12.7288 13.5456 12.545 13.7293 12.3446 13.8938C11.7538 14.3787 11.0465 14.5919 10.1874 14.6934C9.35053 14.7923 8.29274 14.7923 6.95754 14.7923H6.87596C5.54075 14.7923 4.48297 14.7923 3.64612 14.6934C2.78698 14.5919 2.07973 14.3787 1.48894 13.8938C1.28851 13.7293 1.10473 13.5456 0.940249 13.3451C0.455401 12.7543 0.242202 12.0471 0.140648 11.1879C0.04173 10.3511 0.0417381 9.2933 0.0417483 7.95808V7.04323C0.0417381 5.708 0.04173 4.65021 0.140648 3.81336C0.242202 2.95422 0.455401 2.24697 0.940249 1.65618C1.10473 1.45575 1.28852 1.27197 1.48894 1.10749C2.07973 0.622637 2.78698 0.409438 3.64612 0.307885C4.48297 0.208966 5.54077 0.208974 6.87599 0.208985ZM12.5417 7.91732V7.08398C12.5417 5.69889 12.5407 4.71502 12.4515 3.96009C12.3639 3.21896 12.1988 2.78034 11.927 2.44917C11.8144 2.31204 11.6887 2.18629 11.5516 2.07375C11.2204 1.80196 10.7818 1.63685 10.0406 1.54924C9.28572 1.46001 8.30184 1.45898 6.91675 1.45898C5.53166 1.45898 4.54778 1.46001 3.79286 1.54924C3.05173 1.63685 2.6131 1.80196 2.28193 2.07375C2.1448 2.18629 2.01906 2.31204 1.90651 2.44917C1.63473 2.78034 1.46961 3.21896 1.38201 3.96009C1.29277 4.71502 1.29175 5.69889 1.29175 7.08398V7.91732C1.29175 9.30241 1.29277 10.2863 1.38201 11.0412C1.46961 11.7823 1.63473 12.221 1.90651 12.5521C2.01906 12.6893 2.1448 12.815 2.28193 12.9276C2.6131 13.1993 3.05172 13.3645 3.79286 13.4521C4.54778 13.5413 5.53166 13.5423 6.91675 13.5423C8.30184 13.5423 9.28572 13.5413 10.0406 13.4521C10.7818 13.3645 11.2204 13.1993 11.5516 12.9276C11.6887 12.815 11.8144 12.6893 11.927 12.5521C12.1988 12.221 12.3639 11.7823 12.4515 11.0412C12.5407 10.2863 12.5417 9.30241 12.5417 7.91732ZM13.7917 9.19771L13.9949 9.29928C14.8244 9.71403 15.3832 9.9916 15.8081 10.1306C16.2243 10.2668 16.3502 10.2146 16.412 10.1764C16.4738 10.1383 16.5768 10.0489 16.6411 9.61583C16.7068 9.17362 16.7084 8.54963 16.7084 7.62223V7.37907C16.7084 6.45167 16.7068 5.82768 16.6411 5.38547C16.5768 4.95239 16.4738 4.86304 16.412 4.82487C16.3502 4.7867 16.2243 4.73451 15.8081 4.87067C15.3832 5.0097 14.8244 5.28727 13.9949 5.70202L13.7917 5.80359V6.97273C13.7917 6.99614 13.7917 7.01964 13.7917 7.04323V7.95808C13.7917 7.98166 13.7917 8.00516 13.7917 8.02858V9.19771Z" fill="#433F41"/>
</svg>
